<?xml version="1.0" standalone="no"?><!DOCTYPE svg PUBLIC "-//W3C//DTD SVG 1.1//EN" "http://www.w3.org/Graphics/SVG/1.1/DTD/svg11.dtd"><svg t="1627524658551" class="icon" viewBox="0 0 1024 1024" version="1.1" xmlns="http://www.w3.org/2000/svg" p-id="5919" xmlns:xlink="http://www.w3.org/1999/xlink" width="200" height="200"><defs><style type="text/css">@font-face { font-family: feedback-iconfont; src: url("//at.alicdn.com/t/font_1031158_1uhr8ri0pk5.eot?#iefix") format("embedded-opentype"), url("//at.alicdn.com/t/font_1031158_1uhr8ri0pk5.woff2") format("woff2"), url("//at.alicdn.com/t/font_1031158_1uhr8ri0pk5.woff") format("woff"), url("//at.alicdn.com/t/font_1031158_1uhr8ri0pk5.ttf") format("truetype"), url("//at.alicdn.com/t/font_1031158_1uhr8ri0pk5.svg#iconfont") format("svg"); }
</style></defs><path d="M228 533.2h181v61.7H228zM228 669.2h181v61.7H228z" p-id="5920"></path><path d="M624.9 830.3H160.1c-4 0-7.2-3.2-7.2-7.2V438.3H871v98.3c18.2 7.6 35 17.9 50 30.2V272.3c0-31.5-25.7-57.2-57.2-57.2h-95.4v-65.9h-50v65.9h-400v-65.9h-50v65.9H160.1c-31.5 0-57.2 25.7-57.2 57.2v550.8c0 31.5 25.7 57.2 57.2 57.2h510.7c-18-13.9-33.5-30.8-45.9-50z m-472-558c0-4 3.2-7.2 7.2-7.2h108.4v69.6h50v-69.6h400v69.6h50v-69.6h95.4c4 0 7.2 3.2 7.2 7.2v116H152.9v-116z" p-id="5921"></path><path d="M488.6 730.9h104.5c-0.1-3.1-0.2-6.2-0.2-9.3 0-18.1 2.4-35.7 6.9-52.4H488.6v61.7zM488.6 594.9H638c9.4-11.5 20-21.9 31.7-31.1v-30.6h-181v61.7z" p-id="5922"></path><path d="M823.8 640v150.9h-49.5V640h49.5z" p-id="5923"></path><path d="M792 876c-88.8 0-161-72.2-161-161s72.2-161 161-161 161 72.2 161 161-72.2 161-161 161z m0-272c-61.2 0-111 49.8-111 111s49.8 111 111 111 111-49.8 111-111-49.8-111-111-111z" p-id="5924"></path></svg>