<?xml version="1.0" standalone="no"?><!DOCTYPE svg PUBLIC "-//W3C//DTD SVG 1.1//EN" "http://www.w3.org/Graphics/SVG/1.1/DTD/svg11.dtd"><svg t="1627442351830" class="icon" viewBox="0 0 1024 1024" version="1.1" xmlns="http://www.w3.org/2000/svg" p-id="2932" xmlns:xlink="http://www.w3.org/1999/xlink" width="200" height="200"><defs><style type="text/css">@font-face { font-family: feedback-iconfont; src: url("//at.alicdn.com/t/font_1031158_1uhr8ri0pk5.eot?#iefix") format("embedded-opentype"), url("//at.alicdn.com/t/font_1031158_1uhr8ri0pk5.woff2") format("woff2"), url("//at.alicdn.com/t/font_1031158_1uhr8ri0pk5.woff") format("woff"), url("//at.alicdn.com/t/font_1031158_1uhr8ri0pk5.ttf") format("truetype"), url("//at.alicdn.com/t/font_1031158_1uhr8ri0pk5.svg#iconfont") format("svg"); }
</style></defs><path d="M554.666667 576a21.333333 21.333333 0 0 0 21.333333 21.333333h80.213333L512 741.546667 367.786667 597.333333h80.213333a21.333333 21.333333 0 0 0 21.333333-21.333333V256h85.333334z m-57.6 270.933333a20.48 20.48 0 0 0 29.866666 0l289.706667-289.706666a21.333333 21.333333 0 0 0 0-30.293334l-8.533333-8.533333a20.906667 20.906667 0 0 0-15.36-6.4H640V192a21.333333 21.333333 0 0 0-21.333333-21.333333h-213.333334a21.333333 21.333333 0 0 0-21.333333 21.333333V512H231.253333a20.906667 20.906667 0 0 0-15.36 6.4l-8.533333 8.533333a21.333333 21.333333 0 0 0 0 30.293334z" p-id="2933" fill="#1296db"></path></svg>