<?xml version="1.0" standalone="no"?><!DOCTYPE svg PUBLIC "-//W3C//DTD SVG 1.1//EN" "http://www.w3.org/Graphics/SVG/1.1/DTD/svg11.dtd"><svg t="1625728196562" class="icon" viewBox="0 0 1024 1024" version="1.1" xmlns="http://www.w3.org/2000/svg" p-id="2973" xmlns:xlink="http://www.w3.org/1999/xlink" width="200" height="200"><defs><style type="text/css"></style></defs><path d="M597.333333 341.333333c0-47.018667-38.314667-85.333333-85.333333-85.333333-47.018667 0-85.333333 38.314667-85.333333 85.333333 0 47.018667 38.314667 85.333333 85.333333 85.333334 47.018667 0 85.333333-38.314667 85.333333-85.333334z m85.333334 0c0 94.08-76.586667 170.666667-170.666667 170.666667-94.122667 0-170.666667-76.586667-170.666667-170.666667s76.544-170.666667 170.666667-170.666666c94.08 0 170.666667 76.586667 170.666667 170.666666zM341.333333 896l50.218667-206.805333c13.482667-49.493333 26.282667-49.194667 77.653333-49.194667h85.589334c51.2 0 64.256 0 77.653333 49.194667L682.666667 896h85.333333l-53.205333-229.248C691.242667 580.394667 644.48 554.666667 554.794667 554.666667h-85.589334c-89.856 0-136.362667 25.429333-160 112.085333L256 896h85.333333z" p-id="2974" fill="#13227a"></path></svg>