<?xml version="1.0" standalone="no"?><!DOCTYPE svg PUBLIC "-//W3C//DTD SVG 1.1//EN" "http://www.w3.org/Graphics/SVG/1.1/DTD/svg11.dtd"><svg t="1628648276306" class="icon" viewBox="0 0 1024 1024" version="1.1" xmlns="http://www.w3.org/2000/svg" p-id="3445" xmlns:xlink="http://www.w3.org/1999/xlink" width="200" height="200"><defs><style type="text/css"></style></defs><path d="M904.042667 298.752l-164.8 0 0-56.96c0-117.632-92.629333-213.333333-206.485333-213.333333l-13.717333 0c-113.856 0-206.485333 95.701333-206.485333 213.333333l0 56.96L147.776 298.752c-38.528 0-69.866667 31.317333-69.866667 69.781333l0 538.816c0 38.485333 31.338667 69.802667 69.866667 69.802667l756.266667 0c38.528 0 69.845333-31.317333 69.845333-69.802667L973.888 368.533333C973.909333 330.048 942.570667 298.752 904.042667 298.752zM355.242667 241.770667c0-94.101333 73.493333-170.666667 163.818667-170.666667l13.717333 0c90.325333 0 163.818667 76.565333 163.818667 170.666667l0 56.96-341.333333 0L355.264 241.770667zM931.242667 907.349333c0 14.976-12.181333 27.178667-27.178667 27.178667L147.776 934.528c-14.997333 0-27.2-12.202667-27.2-27.178667L120.576 368.533333c0-14.976 12.202667-27.157333 27.2-27.157333l756.266667 0c14.997333 0 27.178667 12.181333 27.178667 27.157333L931.221333 907.349333z" p-id="3446" fill="#2c2c2c"></path><path d="M547.242667 594.624l0-98.816L545.92 495.808c-2.773333-8.576-10.538667-14.869333-20.032-14.869333s-17.258667 6.314667-20.032 14.869333l-1.28 0 0 6.357333c0 0.042667-0.021333 0.064-0.021333 0.106667s0.021333 0.064 0.021333 0.106667l0 92.245333c-45.653333 9.834667-80 50.432-80 98.986667 0 55.872 45.461333 101.333333 101.333333 101.333333s101.333333-45.461333 101.333333-101.333333C627.242667 645.077333 592.896 604.48 547.242667 594.624zM525.909333 752.277333c-32.362667 0-58.666667-26.304-58.666667-58.666667 0-32.362667 26.304-58.666667 58.666667-58.666667s58.666667 26.304 58.666667 58.666667C584.576 725.973333 558.272 752.277333 525.909333 752.277333z" p-id="3447" fill="#2c2c2c"></path></svg>