<?xml version="1.0" standalone="no"?><!DOCTYPE svg PUBLIC "-//W3C//DTD SVG 1.1//EN" "http://www.w3.org/Graphics/SVG/1.1/DTD/svg11.dtd"><svg t="1631775394815" class="icon" viewBox="0 0 1024 1024" version="1.1" xmlns="http://www.w3.org/2000/svg" p-id="12097" xmlns:xlink="http://www.w3.org/1999/xlink" width="200" height="200"><defs><style type="text/css"></style></defs><path d="M842.25 762.63l-2.98-0.84c-43.21-11.62-57.82-22.77-77.09-30.08-68.27-26.03-86.01-44.77-90.55-53.61-0.15-0.31-0.31-0.66-0.46-0.99l-0.56-79.28-161.88-1.84-161.88 1.84-0.56 79.28c-0.15 0.33-0.31 0.69-0.46 0.99-4.54 8.84-22.28 27.58-90.55 53.61-19.25 7.31-33.88 18.46-77.09 30.08l-2.98 0.84c-39.33 13.03-65.82 49.51-65.82 90.7V933h798.68v-79.66c0-41.2-26.49-77.68-65.82-90.71z" fill="#434A54" p-id="12098"></path><path d="M508.63 706.6l-98.5 83L510.06 933l91.54-150.17z" fill="#CCD1D9" p-id="12099"></path><path d="M346.47 619.88l78.75 186.68 84.84-63.25 87.54 65.26 73.16-190.48z" fill="#E6E9ED" p-id="12100"></path><path d="M733.37 445.02c0 145.95-139.14 280.26-224.64 280.26S284.09 590.96 284.09 445.02c0-145.97 100.6-242.28 224.64-242.28 124.05 0.01 224.64 96.31 224.64 242.28z" fill="#EAC6BB" p-id="12101"></path><path d="M510.06 933L346.47 619.88l-45.45 112.39 53.18 40.82-9.54 39.2zM510.06 933l160.7-314.91 47.98 114.18-53.18 40.82 9.54 39.2z" fill="#656D78" p-id="12102"></path><path d="M691.72 149.77c-50.73-33.6-115.74-52.11-182.99-52.11s-132.25 18.51-182.99 52.11c-50.63 33.52-79.64 77.65-79.64 121.06 0 42.65 30.79 81.65 86.67 109.79 48.92 24.65 113.03 38.78 175.95 38.78 62.92 0 127.03-14.12 175.95-38.78 55.88-28.14 86.68-67.15 86.68-109.79 0.01-43.41-29.01-87.53-79.63-121.06z" fill="#DA4453" p-id="12103"></path><path d="M719.09 367.14H301.02c-5.35 0-10.4-2.45-13.71-6.65a17.353 17.353 0 0 1-3.21-14.86c1.02-4.28 27.58-104.52 224.64-104.52 196.7 0 226.02 99.8 227.19 104.06 1.4 5.23 0.31 10.84-3.01 15.14-3.3 4.31-8.42 6.83-13.83 6.83z" fill="#ED5564" p-id="12104"></path><path d="M735.61 344.23c-2.37-7.11-9.02-11.93-16.52-11.93H301.02c-7.49 0-14.17 4.82-16.52 11.93-2.4 7.11 0.05 14.94 6.07 19.43l69.67 52.26c3.03 2.27 6.68 3.49 10.45 3.49H649.4c3.77 0 7.44-1.22 10.45-3.49l69.7-52.26c5.99-4.49 8.43-12.32 6.06-19.43z" fill="#656D78" p-id="12105"></path><path d="M544.88 192.96c0 19.22-15.6 34.82-34.82 34.82-19.25 0-34.85-15.6-34.85-34.82 0-19.25 15.6-34.85 34.85-34.85 19.22 0 34.82 15.6 34.82 34.85z" fill="#FFCE54" p-id="12106"></path><path d="M527.47 807.02c0 9.64-7.8 17.44-17.41 17.44-9.64 0-17.44-7.8-17.44-17.44 0-9.61 7.8-17.41 17.44-17.41 9.61-0.01 17.41 7.8 17.41 17.41z" fill="#656D78" p-id="12107"></path><path d="M369.19 576.52c-8.69 16.9-14.73 33.83-14.73 48.26 0 51.39 122.62 134.47 154.28 135.01 31.66-0.54 154.28-83.62 154.28-135.01 0-14.76-6.32-32.1-15.35-49.35-22.51-43.12-256.05-42.41-278.48 1.09z" fill="#E9573F" p-id="12108"></path><path d="M636.09 507.1c24.52-7.52 46.4 10.07 18.2 25.29-56.9 30.69-99.73-84.74-147.91-24.42-48.18 60.31 28.6 121.11 97.33 114.79 187.01-17.18 107.91-145.64 72.47-144.54-27.06 0.81-40.09 28.88-40.09 28.88z" fill="#FC6E51" p-id="12109"></path><path d="M381.37 507.1c-24.52-7.52-46.39 10.07-18.2 25.29 56.9 30.69 99.73-84.74 147.91-24.42 48.18 60.31-28.6 121.11-97.33 114.79-187.01-17.18-107.91-145.64-72.45-144.54 27.07 0.81 40.07 28.88 40.07 28.88z" fill="#FC6E51" p-id="12110"></path></svg>