<?xml version="1.0" standalone="no"?><!DOCTYPE svg PUBLIC "-//W3C//DTD SVG 1.1//EN" "http://www.w3.org/Graphics/SVG/1.1/DTD/svg11.dtd"><svg t="1631760107271" class="icon" viewBox="0 0 1024 1024" version="1.1" xmlns="http://www.w3.org/2000/svg" p-id="10572" xmlns:xlink="http://www.w3.org/1999/xlink" width="200" height="200"><defs><style type="text/css"></style></defs><path d="M512 512m-512 0a512 512 0 1 0 1024 0 512 512 0 1 0-1024 0Z" fill="#3AD0F9" p-id="10573"></path><path d="M766.4 532a166.4 108.8 90 1 0 217.6 0 166.4 108.8 90 1 0-217.6 0Z" fill="#84DB14" p-id="10574"></path><path d="M876 704c-64 0-116-79.2-116-176s52-176 116-176S992 431.2 992 528s-52 176-116 176z m0-336C820.8 368 776 440 776 528s44.8 160 100 160S976 616 976 528s-44.8-160-100-160z" fill="#6B3C1C" p-id="10575"></path><path d="M872 836.8c-4.8 0-8-3.2-8-8V496c0-4.8 3.2-8 8-8s8 3.2 8 8v333.6c0 4-3.2 7.2-8 7.2z" fill="#6B3C1C" p-id="10576"></path><path d="M880.8 608c-2.4 0-4.8-0.8-6.4-2.4-3.2-3.2-3.2-8.8 0-12l46.4-46.4c3.2-3.2 8.8-3.2 12 0 3.2 3.2 3.2 8.8 0 12l-46.4 46.4c-1.6 1.6-3.2 2.4-5.6 2.4z" fill="#6B3C1C" p-id="10577"></path><path d="M943.2 488c-4.8 0-8.8-3.2-8.8-8 0-35.2-43.2-65.6-43.2-65.6-4-2.4-4.8-8-1.6-11.2 3.2-3.2 8-4 12-1.6 2.4 1.6 50.4 35.2 50.4 78.4 0 4.8-4 8-8.8 8z" fill="#FFFFFF" p-id="10578"></path><path d="M932.8 840H76.8c-4.8 0-8-3.2-8-8s3.2-8 8-8h856.8c4.8 0 8 3.2 8 8s-4 8-8.8 8z" fill="#663210" p-id="10579"></path><path d="M644 688c0 35.2-28.8 64-64 64H206.4c-35.2 0-64-28.8-64-64V484c0-35.2 28.8-64 64-64h373.6c35.2 0 64 28.8 64 64V688zM888 720c0 17.6-14.4 32-32 32H676c-17.6 0-32-14.4-32-32V496c0-17.6 14.4-32 32-32h72.8c13.6 0 31.2 8 39.2 18.4 8 10.4 23.2 30.4 33.6 44l46.4 60c10.4 13.6 19.2 40 19.2 57.6V720z" fill="#EAEAEA" p-id="10580"></path><path d="M580 693.6H206.4c-35.2 0-64-28.8-64-64V688c0 35.2 28.8 64 64 64h373.6c35.2 0 64-28.8 64-64v-58.4c0 35.2-28.8 64-64 64z" fill="#D4D6D6" p-id="10581"></path><path d="M148 608h496v48h-496zM148 680h496v40h-496z" fill="#FF4848" p-id="10582"></path><path d="M856 704H676c-17.6 0-32-12.8-32-30.4V720c0 17.6 14.4 32 32 32H856c17.6 0 32-14.4 32-32v-46.4c0 17.6-14.4 30.4-32 30.4z" fill="#D4D6D6" p-id="10583"></path><path d="M888 652h-33.6v41.6h33.6" fill="#FBD000" p-id="10584"></path><path d="M584 760H208c-40 0-72-32-72-72V480c0-40 32-72 72-72h376c40 0 72 32 72 72v208c0 40-32 72-72 72zM208 424c-31.2 0-56 24.8-56 56v208c0 31.2 24.8 56 56 56h376c31.2 0 56-24.8 56-56V480c0-31.2-24.8-56-56-56H208z" fill="#663210" p-id="10585"></path><path d="M856 760H680c-22.4 0-40-17.6-40-40V496c0-22.4 17.6-40 40-40h70.4c16.8 0 36.8 9.6 45.6 21.6 7.2 10.4 21.6 30.4 32 44l47.2 63.2c11.2 15.2 20.8 43.2 20.8 62.4v72c0 23.2-17.6 40.8-40 40.8zM680 472c-13.6 0-24 10.4-24 24v224c0 13.6 10.4 24 24 24h176c13.6 0 24-10.4 24-24v-72c0-16-8-40-17.6-52.8l-47.2-63.2c-10.4-14.4-24.8-34.4-32.8-44.8-5.6-8-20.8-15.2-32.8-15.2H680z" fill="#663210" p-id="10586"></path><path d="M279.2 767.2m-64.8 0a64.8 64.8 0 1 0 129.6 0 64.8 64.8 0 1 0-129.6 0Z" fill="#415E6D" p-id="10587"></path><path d="M766.4 767.2m-64.8 0a64.8 64.8 0 1 0 129.6 0 64.8 64.8 0 1 0-129.6 0Z" fill="#415E6D" p-id="10588"></path><path d="M710.4 506.4c-8.8 0-16 7.2-16 16v80c0 8.8 7.2 16 16 16H824c8.8 0 12-5.6 7.2-12.8L772 520c-4.8-7.2-16-12.8-24.8-12.8h-36.8z" fill="#FFFFFF" p-id="10589"></path><path d="M96 608H48c-4.8 0-8-3.2-8-8s4-8 8-8h48c4.8 0 8 3.2 8 8s-4 8-8 8zM96 712H8c-4.8 0-8-3.2-8-8s4-8 8-8h88c4.8 0 8 3.2 8 8s-4 8-8 8z" fill="#663210" p-id="10590"></path><path d="M279.2 805.6c-31.2 0-57.6-22.4-64-52-0.8 4-1.6 8.8-1.6 13.6 0 36 28.8 64.8 64.8 64.8s64.8-28.8 64.8-64.8c0-4.8-0.8-8.8-1.6-13.6-4.8 29.6-31.2 52-62.4 52zM766.4 805.6c-31.2 0-57.6-22.4-64-52-0.8 4-1.6 8.8-1.6 13.6 0 36 28.8 64.8 64.8 64.8s64.8-28.8 64.8-64.8c0-4.8-0.8-8.8-1.6-13.6-5.6 29.6-31.2 52-62.4 52z" fill="#324D5B" p-id="10591"></path><path d="M192 664H32c-4.8 0-8-3.2-8-8s4-8 8-8h160c4.8 0 8 3.2 8 8s-4 8-8 8z" fill="#663210" p-id="10592"></path><path d="M352 314.4c0-8.8-10.4-18.4-24-18.4H216.8c-13.6 0-24 9.6-24 18.4 0 8.8-8.8 13.6-20 13.6s-20 9.6-20 18.4c0 8.8 10.4 13.6 24 13.6h80c13.6 0 24-4.8 24-13.6s10.4-18.4 24-18.4h24c12.8 0 23.2-4.8 23.2-13.6zM856 234.4c0-8.8-10.4-18.4-24-18.4H720.8c-13.6 0-24 9.6-24 18.4S687.2 248 676 248c-11.2 0-20 9.6-20 18.4 0 8.8 10.4 13.6 24 13.6h80c13.6 0 24-4.8 24-13.6s10.4-18.4 24-18.4h24c13.6 0 24-4.8 24-13.6z" fill="#FFFFFF" p-id="10593"></path><path d="M472 162.4c0 38.4-28.8 69.6-67.2 69.6-38.4 0-68.8-33.6-68.8-72s30.4-64 68.8-64 67.2 27.2 67.2 66.4z" fill="#FBD000" p-id="10594"></path><path d="M280 840c-40 0-72-32-72-72s32-72 72-72 72 32 72 72-32 72-72 72z m0-128c-31.2 0-56 25.6-56 56s25.6 56 56 56c31.2 0 56-25.6 56-56s-24.8-56-56-56zM768 840c-40 0-72-32-72-72s32-72 72-72 72 32 72 72-32 72-72 72z m0-128c-31.2 0-56 25.6-56 56s25.6 56 56 56c31.2 0 56-25.6 56-56s-24.8-56-56-56z" fill="#663210" p-id="10595"></path><path d="M280 768m-32 0a32 32 0 1 0 64 0 32 32 0 1 0-64 0Z" fill="#EAEAEA" p-id="10596"></path><path d="M768 768m-32 0a32 32 0 1 0 64 0 32 32 0 1 0-64 0Z" fill="#EAEAEA" p-id="10597"></path><path d="M831.2 632H712c-12.8 0-24-10.4-24-24V520c0-13.6 10.4-24 24-24h32c11.2 0 24.8 7.2 32 16l68.8 94.4c4 5.6 5.6 12 2.4 17.6-3.2 4.8-8.8 8-16 8zM712 512c-4 0-8 3.2-8 8v88c0 4.8 3.2 8 8 8h119.2l-68.8-94.4c-3.2-4.8-12.8-9.6-18.4-9.6h-32zM888 704h-32c-4.8 0-8-3.2-8-8v-40c0-4.8 3.2-8 8-8h32c4.8 0 8 3.2 8 8s-3.2 8-8 8h-24v24h24c4.8 0 8 3.2 8 8s-3.2 8-8 8z" fill="#663210" p-id="10598"></path><path d="M608 584c-4.8 0-8-3.2-8-8V486.4c0-26.4-6.4-30.4-26.4-30.4H304c-4.8 0-8-3.2-8-8s3.2-8 8-8h269.6c31.2 0 42.4 12.8 42.4 46.4V576c0 4.8-3.2 8-8 8zM272 456h-47.2c-4.8 0-8-3.2-8-8s3.2-8 8-8H272c4.8 0 8 3.2 8 8s-3.2 8-8 8zM672 688c-4.8 0-8-3.2-8-8V504c0-4 3.2-8 8-8s8 3.2 8 8v176c0 4.8-3.2 8-8 8z" fill="#FFFFFF" p-id="10599"></path><path d="M600 640h-64c-4 0-8-3.2-8-8s3.2-8 8-8h64c4 0 8 3.2 8 8s-3.2 8-8 8zM488 640H240c-4.8 0-8-3.2-8-8s3.2-8 8-8h248c4.8 0 8 3.2 8 8s-3.2 8-8 8zM327.2 776c-4.8 0-8.8-4-8.8-8.8 0-20.8-17.6-38.4-38.4-38.4-4.8 0-8.8-4-8.8-8.8 0-4.8 4-8.8 8.8-8.8 30.4 0 55.2 24.8 55.2 55.2 0.8 5.6-3.2 9.6-8 9.6zM815.2 775.2c-4.8 0-8.8-4-8.8-8.8 0-20.8-17.6-37.6-40-37.6-4.8 0-8.8-4-8.8-8.8s4-8.8 8.8-8.8c32 0 57.6 24.8 57.6 54.4 0 5.6-4 9.6-8.8 9.6z" fill="#FFFFFF" opacity=".5" p-id="10600"></path><path d="M728 563.2c-2.4 0-4-0.8-5.6-2.4-3.2-3.2-3.2-8 0-11.2l19.2-19.2c3.2-3.2 8-3.2 11.2 0 3.2 3.2 3.2 8 0 11.2l-19.2 19.2c-1.6 1.6-3.2 2.4-5.6 2.4zM728.8 600c-2.4 0-4-0.8-5.6-2.4-3.2-3.2-3.2-8 0-11.2l36.8-35.2c3.2-3.2 8.8-3.2 12 0 3.2 3.2 3.2 8 0 11.2l-36.8 35.2c-2.4 1.6-4.8 2.4-6.4 2.4z" fill="#074370" opacity=".5" p-id="10601"></path><path d="M504 360c-17.6 0-32-14.4-32-32s14.4-32 32-32 32 14.4 32 32-14.4 32-32 32z m0-48c-8.8 0-16 7.2-16 16s7.2 16 16 16 16-7.2 16-16-7.2-16-16-16zM621.6 148c0-3.2-3.2-6.4-8-7.2l-15.2-2.4c-4-0.8-8.8-4.8-8.8-8.8l-2.4-15.2c-0.8-4-4-8-7.2-8s-6.4 3.2-7.2 8l-2.4 15.2c-0.8 4-4.8 8.8-8.8 8.8l-15.2 2.4c-4 0.8-8 4-8 7.2s3.2 6.4 8 7.2l15.2 2.4c4 0.8 8.8 4.8 8.8 8.8l2.4 15.2c0.8 4 4 8 7.2 8s6.4-3.2 6.4-8l2.4-16.8c0.8-4 4.8-8 8.8-8.8l14.4-0.8c6.4-1.6 9.6-4 9.6-7.2z" fill="#FFFFFF" p-id="10602"></path></svg>