<?xml version="1.0" standalone="no"?><!DOCTYPE svg PUBLIC "-//W3C//DTD SVG 1.1//EN" "http://www.w3.org/Graphics/SVG/1.1/DTD/svg11.dtd"><svg t="1631758155354" class="icon" viewBox="0 0 1024 1024" version="1.1" xmlns="http://www.w3.org/2000/svg" p-id="9438" xmlns:xlink="http://www.w3.org/1999/xlink" width="200" height="200"><defs><style type="text/css"></style></defs><path d="M512 512m-512 0a512 512 0 1 0 1024 0 512 512 0 1 0-1024 0Z" fill="#6AE5E1" p-id="9439"></path><path d="M1000 760H32c-4.8 0-8-3.2-8-8s3.2-8 8-8h968c4.8 0 8 3.2 8 8s-3.2 8-8 8z" fill="#663210" p-id="9440"></path><path d="M824 752H192V336h320l72 224h240z" fill="#FBD000" p-id="9441"></path><path d="M840 672H184c-4.8 0-8-3.2-8-8s3.2-8 8-8h656c4.8 0 8 3.2 8 8s-3.2 8-8 8zM840 568H184c-4.8 0-8-3.2-8-8s3.2-8 8-8h656c4.8 0 8 3.2 8 8s-3.2 8-8 8zM552 464H176c-4.8 0-8-3.2-8-8s3.2-8 8-8h376c4.8 0 8 3.2 8 8s-3.2 8-8 8zM520 368H176c-4.8 0-8-3.2-8-8s3.2-8 8-8h344c4.8 0 8 3.2 8 8s-3.2 8-8 8z" fill="#663210" p-id="9442"></path><path d="M232 632v-30.4c0-9.6 6.4-15.2 16-15.2s16 5.6 16 15.2V632h-32z" fill="#AD5114" p-id="9443"></path><path d="M232 528v-30.4c0-9.6 6.4-15.2 16-15.2s16 5.6 16 15.2V528h-32z" fill="#6AE5E1" p-id="9444"></path><path d="M192 672h640v16H192zM192 568h640v16H192zM200 464h352v16H200zM200 368h320v16H200z" fill="#F99900" p-id="9445"></path><path d="M248 416c-4.8 0-8-3.2-8-8v-24c0-4.8 3.2-8 8-8s8 3.2 8 8v24c0 4.8-3.2 8-8 8z" fill="#663210" p-id="9446"></path><path d="M336 632v-30.4c0-9.6 6.4-15.2 16-15.2s16 5.6 16 15.2V632h-32z" fill="#AD5114" p-id="9447"></path><path d="M336 528v-30.4c0-9.6 6.4-15.2 16-15.2s16 5.6 16 15.2V528h-32z" fill="#6AE5E1" p-id="9448"></path><path d="M352 416c-4.8 0-8-3.2-8-8v-24c0-4.8 3.2-8 8-8s8 3.2 8 8v24c0 4.8-3.2 8-8 8z" fill="#663210" p-id="9449"></path><path d="M440 632v-30.4c0-9.6 6.4-15.2 16-15.2s16 5.6 16 15.2V632h-32z" fill="#AD5114" p-id="9450"></path><path d="M440 528v-30.4c0-9.6 6.4-15.2 16-15.2s16 5.6 16 15.2V528h-32z" fill="#6AE5E1" p-id="9451"></path><path d="M456 416c-4.8 0-8-3.2-8-8v-24c0-4.8 3.2-8 8-8s8 3.2 8 8v24c0 4.8-3.2 8-8 8z" fill="#663210" p-id="9452"></path><path d="M544 632v-30.4c0-9.6 6.4-15.2 16-15.2s16 5.6 16 15.2V632h-32zM648 632v-30.4c0-9.6 6.4-15.2 16-15.2s16 5.6 16 15.2V632h-32zM752 632v-30.4c0-9.6 6.4-15.2 16-15.2s16 5.6 16 15.2V632h-32z" fill="#AD5114" p-id="9453"></path><path d="M824 760H192c-4.8 0-8-3.2-8-8V336c0-4.8 3.2-8 8-8h320c3.2 0 6.4 2.4 8 5.6L589.6 552H824c4.8 0 8 3.2 8 8v192c0 4.8-3.2 8-8 8z m-624-16h616V568H584c-3.2 0-6.4-2.4-8-5.6L506.4 344H200v400z" fill="#663210" p-id="9454"></path><path d="M232 741.6v-30.4c0-9.6 6.4-15.2 16-15.2s16 5.6 16 15.2v30.4h-32zM336 741.6v-30.4c0-9.6 6.4-15.2 16-15.2s16 5.6 16 15.2v30.4h-32zM440 741.6v-30.4c0-9.6 6.4-15.2 16-15.2s16 5.6 16 15.2v30.4h-32zM544 741.6v-30.4c0-9.6 6.4-15.2 16-15.2s16 5.6 16 15.2v30.4h-32zM648 744v-30.4c0-9.6 6.4-15.2 16-15.2s16 5.6 16 15.2V744h-32zM752 744v-30.4c0-9.6 6.4-15.2 16-15.2s16 5.6 16 15.2V744h-32z" fill="#AD5114" p-id="9455"></path><path d="M264 752h-32c-4.8 0-8-4-8-8v-32c0-14.4 9.6-24 24-24s24 9.6 24 24v32c0 4-3.2 8-8 8z m-24-16.8h16V712c0-1.6 0-7.2-8-7.2s-8 5.6-8 7.2v23.2zM368 752h-32c-4.8 0-8-4-8-8v-32c0-14.4 9.6-24 24-24s24 9.6 24 24v32c0 4-3.2 8-8 8z m-24-16.8h16V712c0-1.6 0-7.2-8-7.2s-8 5.6-8 7.2v23.2zM472 752h-32c-4.8 0-8-4-8-8v-32c0-14.4 9.6-24 24-24s24 9.6 24 24v32c0 4-3.2 8-8 8z m-24-16.8h16V712c0-1.6 0-7.2-8-7.2s-8 5.6-8 7.2v23.2zM576 752h-32c-4.8 0-8-4-8-8v-32c0-14.4 9.6-24 24-24s24 9.6 24 24v32c0 4-3.2 8-8 8z m-24-16.8h16V712c0-1.6 0-7.2-8-7.2s-8 5.6-8 7.2v23.2zM680 752h-32c-4.8 0-8-4-8-8v-32c0-14.4 9.6-24 24-24s24 9.6 24 24v32c0 4-3.2 8-8 8z m-24-16.8h16V712c0-1.6 0-7.2-8-7.2s-8 5.6-8 7.2v23.2zM784 752h-32c-4.8 0-8-4-8-8v-32c0-14.4 9.6-24 24-24s24 9.6 24 24v32c0 4-3.2 8-8 8z m-24-16.8h16V712c0-1.6 0-7.2-8-7.2s-8 5.6-8 7.2v23.2zM264 640h-32c-4.8 0-8-4-8-8v-32c0-14.4 9.6-24 24-24s24 9.6 24 24v32c0 4-3.2 8-8 8z m-24-16.8h16V600c0-1.6 0-7.2-8-7.2s-8 5.6-8 7.2v23.2zM368 640h-32c-4.8 0-8-4-8-8v-32c0-14.4 9.6-24 24-24s24 9.6 24 24v32c0 4-3.2 8-8 8z m-24-16.8h16V600c0-1.6 0-7.2-8-7.2s-8 5.6-8 7.2v23.2zM472 640h-32c-4.8 0-8-4-8-8v-32c0-14.4 9.6-24 24-24s24 9.6 24 24v32c0 4-3.2 8-8 8z m-24-16.8h16V600c0-1.6 0-7.2-8-7.2s-8 5.6-8 7.2v23.2zM576 640h-32c-4.8 0-8-4-8-8v-32c0-14.4 9.6-24 24-24s24 9.6 24 24v32c0 4-3.2 8-8 8z m-24-16.8h16V600c0-1.6 0-7.2-8-7.2s-8 5.6-8 7.2v23.2zM680 640h-32c-4.8 0-8-4-8-8v-32c0-14.4 9.6-24 24-24s24 9.6 24 24v32c0 4-3.2 8-8 8z m-24-16.8h16V600c0-1.6 0-7.2-8-7.2s-8 5.6-8 7.2v23.2zM784 640h-32c-4.8 0-8-4-8-8v-32c0-14.4 9.6-24 24-24s24 9.6 24 24v32c0 4-3.2 8-8 8z m-24-16.8h16V600c0-1.6 0-7.2-8-7.2s-8 5.6-8 7.2v23.2zM264 536h-32c-4.8 0-8-4-8-8v-32c0-14.4 9.6-24 24-24s24 9.6 24 24v32c0 4-3.2 8-8 8z m-24-16.8h16V496c0-1.6 0-7.2-8-7.2s-8 5.6-8 7.2v23.2zM368 536h-32c-4.8 0-8-4-8-8v-32c0-14.4 9.6-24 24-24s24 9.6 24 24v32c0 4-3.2 8-8 8z m-24-16.8h16V496c0-1.6 0-7.2-8-7.2s-8 5.6-8 7.2v23.2zM472 536h-32c-4.8 0-8-4-8-8v-32c0-14.4 9.6-24 24-24s24 9.6 24 24v32c0 4-3.2 8-8 8z m-24-16.8h16V496c0-1.6 0-7.2-8-7.2s-8 5.6-8 7.2v23.2zM296 752c-4.8 0-8-3.2-8-8v-56c0-4.8 3.2-8 8-8s8 3.2 8 8v56c0 4.8-3.2 8-8 8zM400 752c-4.8 0-8-3.2-8-8v-56c0-4.8 3.2-8 8-8s8 3.2 8 8v56c0 4.8-3.2 8-8 8zM296 664c-4.8 0-8-3.2-8-8v-72c0-4.8 3.2-8 8-8s8 3.2 8 8v72c0 4.8-3.2 8-8 8zM504 664c-4.8 0-8-3.2-8-8v-72c0-4.8 3.2-8 8-8s8 3.2 8 8v72c0 4.8-3.2 8-8 8zM712 664c-4.8 0-8-3.2-8-8v-72c0-4.8 3.2-8 8-8s8 3.2 8 8v72c0 4.8-3.2 8-8 8zM608 664c-4.8 0-8-3.2-8-8v-72c0-4.8 3.2-8 8-8s8 3.2 8 8v72c0 4.8-3.2 8-8 8zM400 664c-4.8 0-8-3.2-8-8v-72c0-4.8 3.2-8 8-8s8 3.2 8 8v72c0 4.8-3.2 8-8 8zM504 752c-4.8 0-8-3.2-8-8v-56c0-4.8 3.2-8 8-8s8 3.2 8 8v56c0 4.8-3.2 8-8 8zM608 752c-4.8 0-8-3.2-8-8v-56c0-4.8 3.2-8 8-8s8 3.2 8 8v56c0 4.8-3.2 8-8 8zM712 752c-4.8 0-8-3.2-8-8v-56c0-4.8 3.2-8 8-8s8 3.2 8 8v56c0 4.8-3.2 8-8 8zM296 568c-4.8 0-8-3.2-8-8v-72c0-4.8 3.2-8 8-8s8 3.2 8 8v72c0 4.8-3.2 8-8 8zM400 568c-4.8 0-8-3.2-8-8v-72c0-4.8 3.2-8 8-8s8 3.2 8 8v72c0 4.8-3.2 8-8 8zM504 568c-4.8 0-8-3.2-8-8v-72c0-4.8 3.2-8 8-8s8 3.2 8 8v72c0 4.8-3.2 8-8 8zM296 456c-4.8 0-8-3.2-8-8v-64c0-4.8 3.2-8 8-8s8 3.2 8 8v64c0 4.8-3.2 8-8 8zM400 456c-4.8 0-8-3.2-8-8v-64c0-4.8 3.2-8 8-8s8 3.2 8 8v64c0 4.8-3.2 8-8 8zM504 456c-4.8 0-8-3.2-8-8v-64c0-4.8 3.2-8 8-8s8 3.2 8 8v64c0 4.8-3.2 8-8 8z" fill="#663210" p-id="9456"></path><path d="M312 656c-4.8 0-8-3.2-8-8v-56c0-4.8 3.2-8 8-8s8 3.2 8 8v56c0 4.8-3.2 8-8 8zM416 656c-4.8 0-8-3.2-8-8v-56c0-4.8 3.2-8 8-8s8 3.2 8 8v56c0 4.8-3.2 8-8 8zM312 744c-4.8 0-8-3.2-8-8v-48c0-4.8 3.2-8 8-8s8 3.2 8 8v48c0 4.8-3.2 8-8 8zM416 744c-4.8 0-8-3.2-8-8v-48c0-4.8 3.2-8 8-8s8 3.2 8 8v48c0 4.8-3.2 8-8 8zM520 656c-4.8 0-8-3.2-8-8v-56c0-4.8 3.2-8 8-8s8 3.2 8 8v56c0 4.8-3.2 8-8 8zM624 656c-4.8 0-8-3.2-8-8v-56c0-4.8 3.2-8 8-8s8 3.2 8 8v56c0 4.8-3.2 8-8 8zM728 656c-4.8 0-8-3.2-8-8v-56c0-4.8 3.2-8 8-8s8 3.2 8 8v56c0 4.8-3.2 8-8 8zM312 552c-4.8 0-8-3.2-8-8v-56c0-4.8 3.2-8 8-8s8 3.2 8 8v56c0 4.8-3.2 8-8 8zM416 552c-4.8 0-8-3.2-8-8v-56c0-4.8 3.2-8 8-8s8 3.2 8 8v56c0 4.8-3.2 8-8 8zM520 552c-4.8 0-8-3.2-8-8v-56c0-4.8 3.2-8 8-8s8 3.2 8 8v56c0 4.8-3.2 8-8 8zM312 448c-4.8 0-8-3.2-8-8v-48c0-4.8 3.2-8 8-8s8 3.2 8 8v48c0 4.8-3.2 8-8 8zM416 448c-4.8 0-8-3.2-8-8v-48c0-4.8 3.2-8 8-8s8 3.2 8 8v48c0 4.8-3.2 8-8 8zM520 448c-4.8 0-8-3.2-8-8v-48c0-4.8 3.2-8 8-8s8 3.2 8 8v48c0 4.8-3.2 8-8 8zM520 744c-4.8 0-8-3.2-8-8v-48c0-4.8 3.2-8 8-8s8 3.2 8 8v48c0 4.8-3.2 8-8 8zM624 744c-4.8 0-8-3.2-8-8v-48c0-4.8 3.2-8 8-8s8 3.2 8 8v48c0 4.8-3.2 8-8 8zM728 744c-4.8 0-8-3.2-8-8v-48c0-4.8 3.2-8 8-8s8 3.2 8 8v48c0 4.8-3.2 8-8 8zM496 160c0-8.8-10.4-16-24-16H360.8c-13.6 0-24 7.2-24 16s-8.8 16-20 16-20 7.2-20 16 10.4 16 24 16h80c13.6 0 24-7.2 24-16s10.4-16 24-16h24c12.8 0 23.2-7.2 23.2-16zM920 368c0-8.8-8-16-18.4-16H888c-9.6 0-16-8-16-16s-11.2-16-21.6-16h-104c-9.6 0-19.2 8-19.2 16s-7.2 16-16.8 16h-18.4c-9.6 0-20.8 7.2-20.8 16s11.2 16 20.8 16H744c9.6 0 16 8.8 16 16s-6.4 8-16 8h-8c-9.6 0-16 7.2-16 16s4.8 16 15.2 16h49.6c9.6 0 15.2-8 15.2-16s14.4-16 24-16h8c9.6 0 16-8 16-16s14.4-8 24-8h29.6c10.4 0 18.4-7.2 18.4-16z" fill="#FFFFFF" p-id="9457"></path><path d="M704 208m-72 0a72 72 0 1 0 144 0 72 72 0 1 0-144 0Z" fill="#FBD000" p-id="9458"></path><path d="M426.4 864.8c0-3.2-3.2-6.4-8-7.2l-15.2-2.4c-4-0.8-8.8-4.8-8.8-8.8L392 832c-0.8-4-4-8-7.2-8s-6.4 3.2-7.2 8l-2.4 15.2c-0.8 4-4.8 8.8-8.8 8.8l-15.2 2.4c-4 0.8-8 4-8 7.2s3.2 6.4 8 7.2l15.2 2.4c4 0.8 8.8 4.8 8.8 8.8l2.4 15.2c0.8 4 4 8 7.2 8s6.4-3.2 7.2-8l2.4-16.8c0.8-4 4.8-8 8.8-8.8l14.4-0.8c4.8-1.6 8.8-4.8 8.8-8zM130.4 512.8c0-3.2-3.2-6.4-8-7.2l-15.2-1.6c-4-0.8-8.8-4.8-8.8-8.8L96 480c-0.8-4-4-8-7.2-8s-6.4 3.2-7.2 8l-1.6 14.4c-0.8 4-4.8 8.8-8.8 8.8l-15.2 3.2c-4 0.8-8 4-8 7.2s3.2 6.4 8 7.2l15.2 2.4c4 0.8 8.8 4.8 8.8 8.8l2.4 15.2c0.8 4 4 8 7.2 8s6.4-3.2 7.2-8l2.4-16.8c0.8-4 4.8-8 8.8-8.8l14.4-0.8c4-1.6 8-4.8 8-8zM624 912c-17.6 0-32-14.4-32-32s14.4-32 32-32 32 14.4 32 32-14.4 32-32 32z m0-48.8c-9.6 0-16.8 8-16.8 16.8 0 9.6 8 16.8 16.8 16.8 9.6 0 16.8-8 16.8-16.8 0-9.6-7.2-16.8-16.8-16.8zM912 536c-17.6 0-32-14.4-32-32s14.4-32 32-32 32 14.4 32 32-14.4 32-32 32z m0-48.8c-9.6 0-16.8 8-16.8 16.8 0 9.6 8 16.8 16.8 16.8s16.8-8 16.8-16.8c0-9.6-7.2-16.8-16.8-16.8z" fill="#FFFFFF" p-id="9459"></path></svg>