<?xml version="1.0" standalone="no"?><!DOCTYPE svg PUBLIC "-//W3C//DTD SVG 1.1//EN" "http://www.w3.org/Graphics/SVG/1.1/DTD/svg11.dtd"><svg t="1631758818024" class="icon" viewBox="0 0 1024 1024" version="1.1" xmlns="http://www.w3.org/2000/svg" p-id="9760" xmlns:xlink="http://www.w3.org/1999/xlink" width="200" height="200"><defs><style type="text/css"></style></defs><path d="M512 512m-512 0a512 512 0 1 0 1024 0 512 512 0 1 0-1024 0Z" fill="#75B600" p-id="9761"></path><path d="M705.6 532.8H322.4L232 428.8v-240h564v240z" fill="#EAEAEA" p-id="9762"></path><path d="M322.4 532.8h382.4l31.2-35.2C684.8 432.8 605.6 392 516.8 392 426.4 392 360 416 294.4 500.8l28 32zM232 248c4 1.6 8 8 12.8 8h544c2.4 0 4.8-2.4 7.2-3.2v-64H232V248z" fill="#D4D6D6" p-id="9763"></path><path d="M472 220h88V472H472z" fill="#75B600" p-id="9764"></path><path d="M312 220h80V528H312z" fill="#F99900" p-id="9765"></path><path d="M312 528h80V416c-24.8 13.6-60 44-80 64v48z" fill="#DD870B" p-id="9766"></path><path d="M632 220h80V528H632z" fill="#FF4848" p-id="9767"></path><path d="M712 527.2V472c-20.8-19.2-54.4-43.2-80-56v112h80v-0.8z" fill="#EA291C" p-id="9768"></path><path d="M516.8 392c-14.4 0-30.4 1.6-44.8 3.2V472h88v-76c-15.2-3.2-28-4-43.2-4z" fill="#73A504" p-id="9769"></path><path d="M516.8 672.8m-164 0a164 164 0 1 0 328 0 164 164 0 1 0-328 0Z" fill="#FBD000" p-id="9770"></path><path d="M312 220h80V256H312z" fill="#DD870B" p-id="9771"></path><path d="M472 220h88V256H472z" fill="#73A504" p-id="9772"></path><path d="M511.2 593.6c4-8 10.4-8 14.4 0l14.4 29.6c4 8 14.4 15.2 23.2 16.8l32 4.8c8.8 1.6 10.4 7.2 4 13.6L576 680.8c-6.4 6.4-10.4 18.4-8.8 27.2l5.6 32c1.6 8.8-4 12.8-11.2 8l-28.8-15.2c-8-4-20.8-4-28 0l-28.8 15.2c-8 4-12.8 0-11.2-8l5.6-32c1.6-8.8-2.4-20.8-8.8-27.2l-23.2-22.4c-6.4-6.4-4-12 4-13.6l32-4.8c8.8-1.6 19.2-8.8 23.2-16.8l13.6-29.6z" fill="#FBD000" p-id="9773"></path><path d="M632 220h80V256H632z" fill="#EA291C" p-id="9774"></path><path d="M120 488c-17.6 0-32-14.4-32-32s14.4-32 32-32 32 14.4 32 32-14.4 32-32 32z m0-48c-8.8 0-16 7.2-16 16s7.2 16 16 16 16-7.2 16-16-7.2-16-16-16zM880 712c-17.6 0-32-14.4-32-32s14.4-32 32-32 32 14.4 32 32-14.4 32-32 32z m0-48c-8.8 0-16 7.2-16 16s7.2 16 16 16 16-7.2 16-16-7.2-16-16-16zM947.2 441.6c0-3.2-3.2-6.4-8-7.2l-15.2-2.4c-4-0.8-8.8-4.8-8.8-8.8l-2.4-15.2c-0.8-4-4-8-7.2-8s-6.4 3.2-7.2 8l-2.4 15.2c-0.8 4-4.8 8.8-8.8 8.8l-15.2 2.4c-4 0.8-8 4-8 7.2s3.2 6.4 8 7.2l15.2 2.4c4 0.8 8.8 4.8 8.8 8.8l2.4 15.2c0.8 4 4 8 7.2 8s6.4-3.2 6.4-8l2.4-16.8c0.8-4 4.8-8 8.8-8.8l14.4-0.8c6.4-0.8 9.6-4 9.6-7.2zM199.2 685.6c0-3.2-3.2-6.4-8-7.2l-15.2-2.4c-4-0.8-8.8-4.8-8.8-8.8l-2.4-15.2c-0.8-4-4-8-7.2-8s-6.4 3.2-7.2 8l-2.4 15.2c-0.8 4-4.8 8.8-8.8 8.8l-15.2 2.4c-4 0.8-8 4-8 7.2s3.2 6.4 8 7.2l15.2 2.4c4 0.8 8.8 4.8 8.8 8.8l2.4 15.2c0.8 4 4 8 7.2 8s6.4-3.2 6.4-8l2.4-16.8c0.8-4 4.8-8 8.8-8.8l14.4-0.8c6.4-0.8 9.6-4 9.6-7.2z" fill="#FFFFFF" opacity=".5" p-id="9775"></path><path d="M705.6 540.8H322.4c-2.4 0-4.8-0.8-6.4-2.4l-90.4-104c-0.8-2.4-1.6-4-1.6-5.6v-240c0-4.8 3.2-8 8-8h568c4.8 0 8 3.2 8 8v239.2c0 1.6-0.8 4-2.4 5.6l-94.4 104c-1.6 2.4-4 3.2-5.6 3.2z m-379.2-16h375.2L792 425.6V196.8H240v228.8l86.4 99.2z" fill="#663210" p-id="9776"></path><path d="M272 676a240 236 0 1 0 480 0 240 236 0 1 0-480 0Z" fill="#FBD000" p-id="9777"></path><path d="M516.8 536c86.4 0 156.8 66.4 163.2 150.4 0-4.8 0.8-8.8 0.8-13.6 0-90.4-73.6-164-164-164s-164 73.6-164 164c0 4.8 0 8.8 0.8 13.6C360 602.4 430.4 536 516.8 536z" fill="#F4B10B" p-id="9778"></path><path d="M516.8 880c-128.8 0-233.6-99.2-243.2-225.6-0.8 6.4-0.8 12-0.8 18.4 0 134.4 109.6 244 244 244s244-109.6 244-244c0-6.4 0-12.8-0.8-18.4C750.4 780.8 644.8 880 516.8 880z" fill="#F4B10B" p-id="9779"></path><path d="M512.8 920C373.6 920 264 813.6 264 676.8 264 541.6 375.2 432 512.8 432 651.2 432 760 540 760 676.8S651.2 920 512.8 920z m0-472C384 448 280 550.4 280 676.8c0 127.2 102.4 227.2 232.8 227.2C642.4 904 744 804.8 744 676.8 744 548.8 642.4 448 512.8 448z" fill="#663210" p-id="9780"></path><path d="M516.8 840C421.6 840 344 763.2 344 669.6 344 578.4 421.6 504 516.8 504c96 0 171.2 72.8 171.2 165.6 0 93.6-76.8 170.4-171.2 170.4z m0-320C428.8 520 360 585.6 360 669.6s72 155.2 156.8 155.2C602.4 824 672 754.4 672 669.6 672 585.6 604 520 516.8 520z" fill="#663210" p-id="9781"></path><path d="M564 760c-3.2 0-6.4-0.8-9.6-2.4l-28.8-15.2c-4.8-2.4-15.2-2.4-20.8 0l-28.8 15.2c-8 4-15.2 3.2-20-2.4-2.4-2.4-4-7.2-3.2-14.4l5.6-32c0.8-6.4-2.4-15.2-6.4-20l-23.2-22.4c-5.6-4.8-7.2-11.2-5.6-16.8 1.6-5.6 7.2-8.8 14.4-10.4l32-4.8c6.4-0.8 14.4-6.4 16.8-12l14.4-28.8c3.2-6.4 8-10.4 14.4-10.4 5.6 0 11.2 4 14.4 10.4l14.4 28.8c2.4 5.6 10.4 11.2 16.8 12l32 4.8c7.2 0.8 12 4.8 14.4 10.4 1.6 5.6 0 11.2-5.6 16.8l-23.2 22.4c-4 4-7.2 13.6-6.4 20l5.6 32c1.6 7.2-0.8 12-3.2 14.4-2.4 3.2-5.6 4.8-10.4 4.8z m-48-35.2c6.4 0 12.8 1.6 17.6 4l28.8 15.2-5.6-32c-1.6-11.2 2.4-25.6 11.2-33.6l23.2-22.4-32-4.8c-11.2-1.6-24-10.4-28.8-20.8l-14.4-28.8-14.4 28.8c-4.8 10.4-17.6 19.2-28.8 20.8l-32 4.8 23.2 22.4c8 8 12.8 22.4 11.2 33.6l-5.6 32 28.8-15.2c4.8-3.2 11.2-4 17.6-4z" fill="#663210" p-id="9782"></path><path d="M726.4 680c-4.8 0-9.6-3.2-9.6-8 0-29.6-7.2-57.6-20.8-84.8-2.4-4 0-8.8 4.8-10.4 4.8-1.6 10.4 0 12 4C728.8 609.6 736 640 736 672c0 4.8-4 8-9.6 8zM688 560c-2.4 0-4.8-0.8-6.4-3.2-38.4-53.6-100.8-85.6-168-85.6-48.8 0-96 16.8-132.8 48-3.2 2.4-8 2.4-11.2-0.8-3.2-3.2-2.4-8 0.8-11.2 40-32.8 90.4-51.2 143.2-51.2 72 0 139.2 34.4 180.8 92 2.4 3.2 1.6 8-1.6 10.4-1.6 0.8-3.2 1.6-4.8 1.6zM516 816c-50.4 0-96-25.6-122.4-68-2.4-4-0.8-8.8 2.4-11.2 4-2.4 8.8-0.8 11.2 2.4 23.2 37.6 64 60.8 108.8 60.8 22.4 0 44.8-5.6 64-16.8 4-2.4 8.8-0.8 11.2 3.2 2.4 4 0.8 8.8-3.2 10.4-21.6 12.8-46.4 19.2-72 19.2z" fill="#FFFFFF" p-id="9783"></path><path d="M820.8 192.8c0 17.6-14.4 32-32 32h-544c-17.6 0-32-14.4-32-32v-18.4c0-17.6 14.4-32 32-32h544c17.6 0 32 14.4 32 32v18.4z" fill="#FBD000" p-id="9784"></path><path d="M792 232H240c-22.4 0-40-17.6-40-40v-24c0-22.4 17.6-40 40-40h552c22.4 0 40 17.6 40 40v24c0 22.4-17.6 40-40 40zM240 144c-13.6 0-24 10.4-24 24v24c0 13.6 10.4 24 24 24h552c13.6 0 24-10.4 24-24v-24c0-13.6-10.4-24-24-24H240z" fill="#663210" p-id="9785"></path><path d="M776 176H672c-4.8 0-8-3.2-8-8s3.2-8 8-8h104c4.8 0 8 3.2 8 8s-3.2 8-8 8zM632 176H272c-4.8 0-8-3.2-8-8s4-8 8-8h360c4.8 0 8 3.2 8 8s-4 8-8 8z" fill="#FFFFFF" p-id="9786"></path></svg>