<?xml version="1.0" encoding="utf-8"?>
<!-- Generator: Adobe Illustrator 22.0.0, SVG Export Plug-In . SVG Version: 6.00 Build 0)  -->
<svg version="1.1" id="图层_1" xmlns="http://www.w3.org/2000/svg" xmlns:xlink="http://www.w3.org/1999/xlink" x="0px" y="0px"
	 viewBox="0 0 1024 1024" style="enable-background:new 0 0 1024 1024;" xml:space="preserve">
<style type="text/css">
	.st0{fill:#3B6CE4;}
	.st1{fill:#CCDAFE;}
	.st2{fill:#A8BEEF;}
	.st3{fill:url(#SVGID_1_);}
	.st4{fill:url(#SVGID_2_);}
	.st5{fill:url(#SVGID_3_);}
	.st6{fill:#FF7F2A;}
	.st7{fill:url(#SVGID_4_);}
	.st8{fill:#5D94FA;}
	.st9{fill:#353535;}
	.st10{fill:#FFFFFF;}
	.st11{fill:url(#SVGID_5_);}
	.st12{fill:#C47400;}
	.st13{fill:#FDCACA;}
	.st14{fill:#274DA0;}
	.st15{fill:#63393F;}
	.st16{fill:#DBEEFE;}
	.st17{fill:#B9D8ED;}
	.st18{fill:#173872;}
</style>
<g>
	<g>
		<path class="st0" d="M601,599.2H406c-3.3,0-6-2.7-6-6l0,0c0-3.3,2.7-6,6-6h195c3.3,0,6,2.7,6,6l0,0
			C607,596.5,604.3,599.2,601,599.2z"/>
		
			<rect x="409" y="615.2" transform="matrix(-1.836970e-16 1 -1 -1.836970e-16 1053.1974 189.1812)" class="st0" width="46" height="12"/>
		
			<rect x="551" y="615.2" transform="matrix(-1.836970e-16 1 -1 -1.836970e-16 1195.1974 47.1812)" class="st0" width="46" height="12"/>
	</g>
	<g>
		<g>
			<polygon class="st1" points="163.4,714.1 163.4,508.3 245.8,508.3 245.8,360.1 386.4,360.1 386.4,714.1 			"/>
			<g>
				<rect x="259.8" y="384.6" class="st2" width="28.8" height="23"/>
				<rect x="303" y="384.6" class="st2" width="28.8" height="23"/>
				<rect x="346.1" y="384.6" class="st2" width="28.8" height="23"/>
				<rect x="259.8" y="420.6" class="st2" width="28.8" height="23"/>
				<rect x="303" y="420.6" class="st2" width="28.8" height="23"/>
				<rect x="346.1" y="420.6" class="st2" width="28.8" height="23"/>
				<rect x="259.8" y="456.5" class="st2" width="28.8" height="23"/>
				<rect x="303" y="456.5" class="st2" width="28.8" height="23"/>
				<rect x="346.1" y="456.5" class="st2" width="28.8" height="23"/>
				<rect x="259.8" y="492.5" class="st2" width="28.8" height="23"/>
				<rect x="303" y="492.5" class="st2" width="28.8" height="23"/>
				<rect x="346.1" y="492.5" class="st2" width="28.8" height="23"/>
				<rect x="259.8" y="528.5" class="st2" width="28.8" height="23"/>
				<rect x="216.6" y="528.5" class="st2" width="28.8" height="23"/>
				<rect x="173.4" y="528.5" class="st2" width="28.8" height="23"/>
				<rect x="303" y="528.5" class="st2" width="28.8" height="23"/>
				<rect x="346.1" y="528.5" class="st2" width="28.8" height="23"/>
				<rect x="259.8" y="564.5" class="st2" width="28.8" height="23"/>
				<rect x="216.6" y="564.5" class="st2" width="28.8" height="23"/>
				<rect x="173.4" y="564.5" class="st2" width="28.8" height="23"/>
				<rect x="303" y="564.5" class="st2" width="28.8" height="23"/>
				<rect x="346.1" y="564.5" class="st2" width="28.8" height="23"/>
				<rect x="259.8" y="600.4" class="st2" width="28.8" height="23"/>
				<rect x="216.6" y="600.4" class="st2" width="28.8" height="23"/>
				<rect x="173.4" y="600.4" class="st2" width="28.8" height="23"/>
				<rect x="303" y="600.4" class="st2" width="28.8" height="23"/>
				<rect x="346.1" y="600.4" class="st2" width="28.8" height="23"/>
				<rect x="259.8" y="636.4" class="st2" width="28.8" height="23"/>
				<rect x="216.6" y="636.4" class="st2" width="28.8" height="23"/>
				<rect x="173.4" y="636.4" class="st2" width="28.8" height="23"/>
				<rect x="303" y="636.4" class="st2" width="28.8" height="23"/>
				<rect x="346.1" y="636.4" class="st2" width="28.8" height="23"/>
			</g>
		</g>
		<g>
			<polygon class="st1" points="635.4,711.3 635.4,581.7 698.7,581.7 698.7,432.1 795.1,432.1 795.1,502.6 851.3,502.6 851.3,711.3 
							"/>
			<g>
				<rect x="713.1" y="450.8" class="st2" width="28.8" height="23"/>
				<rect x="753.4" y="450.8" class="st2" width="28.8" height="23"/>
				<rect x="713.1" y="594.7" class="st2" width="28.8" height="23"/>
				<rect x="672.8" y="594.7" class="st2" width="28.8" height="23"/>
				<rect x="672.8" y="630.7" class="st2" width="28.8" height="23"/>
				<rect x="753.4" y="594.7" class="st2" width="28.8" height="23"/>
				<rect x="713.1" y="486.8" class="st2" width="28.8" height="23"/>
				<rect x="753.4" y="486.8" class="st2" width="28.8" height="23"/>
				<rect x="713.1" y="522.7" class="st2" width="28.8" height="23"/>
				<rect x="753.4" y="522.7" class="st2" width="28.8" height="23"/>
				<rect x="793.7" y="522.7" class="st2" width="28.8" height="23"/>
				<rect x="793.7" y="558.7" class="st2" width="28.8" height="23"/>
				<rect x="793.7" y="594.7" class="st2" width="28.8" height="23"/>
				<rect x="793.7" y="630.7" class="st2" width="28.8" height="23"/>
				<rect x="713.1" y="558.7" class="st2" width="28.8" height="23"/>
				<rect x="753.4" y="558.7" class="st2" width="28.8" height="23"/>
				<rect x="713.1" y="630.7" class="st2" width="28.8" height="23"/>
				<rect x="753.4" y="630.7" class="st2" width="28.8" height="23"/>
			</g>
		</g>
		<linearGradient id="SVGID_1_" gradientUnits="userSpaceOnUse" x1="504.1383" y1="619.252" x2="512.4955" y2="750.951">
			<stop  offset="0" style="stop-color:#91B3FF"/>
			<stop  offset="0.4022" style="stop-color:#6791F2"/>
			<stop  offset="0.7939" style="stop-color:#3B6CE4"/>
		</linearGradient>
		<path class="st3" d="M92.9,748.7c0,0,164.1-131,411.6-131c233.1,0,427.4,131,427.4,131s-65.5-24.7-204.4-27.3
			c-76.3-1.4-132.4,24.5-225.9,24.5c-87.8,0-149.8-12.1-243.2-15.8C171.8,726.5,92.9,748.7,92.9,748.7z"/>
		<linearGradient id="SVGID_2_" gradientUnits="userSpaceOnUse" x1="519.8433" y1="616.2672" x2="523.8263" y2="679.0345">
			<stop  offset="0" style="stop-color:#91B3FF"/>
			<stop  offset="0.2484" style="stop-color:#6795EC"/>
			<stop  offset="0.7939" style="stop-color:#004CBF"/>
		</linearGradient>
		<path class="st4" d="M429.5,621.7c-5.5,3.8-8.6,8.1-8.6,12.5c0,17.1,44.8,30.9,100,30.9s100-13.9,100-30.9c0-2.2-0.8-4.4-2.3-6.6
			c-36.5-6.2-74.8-10-114.3-10C478.5,617.7,453.5,619.2,429.5,621.7z"/>
		
			<ellipse transform="matrix(0.9596 -0.2814 0.2814 0.9596 -179.8007 124.1763)" class="st0" cx="342.5" cy="688.2" rx="46.8" ry="15.8"/>
		
			<ellipse transform="matrix(0.2923 -0.9563 0.9563 0.2923 -282.4304 1036.5625)" class="st0" cx="559.1" cy="709.1" rx="12.2" ry="30.2"/>
		<g>
			<linearGradient id="SVGID_3_" gradientUnits="userSpaceOnUse" x1="744.3182" y1="647.0374" x2="707.3654" y2="596.7522">
				<stop  offset="0" style="stop-color:#EFBB81"/>
				<stop  offset="0.5011" style="stop-color:#F79E57"/>
				<stop  offset="1" style="stop-color:#FF7F2A"/>
			</linearGradient>
			<path class="st5" d="M750.1,625.7c4.9-5.1,7.4-11.8,6.4-18.6c-1.2-8.2-7.1-14.6-15.2-17.8c0.2-1.8,0.2-3.7-0.2-5.6
				c-1.9-9.1-10.8-15-19.8-13.1c-9,1.9-14.8,10.8-12.9,19.9c0.2,1.2,0.6,2.3,1.1,3.3c-6.9,5.4-10.9,13.4-9.7,21.6
				c0.6,3.8,2.1,7.2,4.5,10.1c-5.2,3.4-8.4,8-8.4,13c0,10.5,14,19,31.2,19c17.2,0,31.2-8.5,31.2-19
				C758.2,633.6,755.2,629.1,750.1,625.7z"/>
			<g>
				<g>
					<path class="st6" d="M726.4,684L726.4,684c-0.9-0.5-1.5-2.5-1.2-4.3c4.4-35.6,1.3-54.8-0.2-61.3c-0.4-1.6-0.1-3.4,0.6-4.4l0,0
						c0.9-1.3,2.1-0.7,2.6,1.4c1.8,8,5.1,28.9,0.4,66.1C728.3,683.4,727.4,684.6,726.4,684z"/>
				</g>
			</g>
		</g>
		<g>
			<linearGradient id="SVGID_4_" gradientUnits="userSpaceOnUse" x1="802.6484" y1="684.5665" x2="781.5655" y2="655.8769">
				<stop  offset="0" style="stop-color:#EFBB81"/>
				<stop  offset="0.5011" style="stop-color:#F79E57"/>
				<stop  offset="1" style="stop-color:#FF7F2A"/>
			</linearGradient>
			<path class="st7" d="M805.9,672.4c2.8-2.9,4.2-6.7,3.7-10.6c-0.7-4.7-4.1-8.3-8.7-10.2c0.1-1,0.1-2.1-0.1-3.2
				c-1.1-5.2-6.2-8.5-11.3-7.5c-5.2,1.1-8.4,6.2-7.3,11.4c0.1,0.7,0.3,1.3,0.6,1.9c-4,3.1-6.2,7.6-5.5,12.3c0.3,2.2,1.2,4.1,2.6,5.8
				c-3,1.9-4.8,4.5-4.8,7.4c0,6,8,10.8,17.8,10.8c9.8,0,17.8-4.9,17.8-10.8C810.6,676.9,808.8,674.3,805.9,672.4z"/>
			<g>
				<g>
					<path class="st6" d="M792.4,705.7L792.4,705.7c-0.5-0.3-0.8-1.4-0.7-2.5c2.5-20.3,0.8-31.2-0.1-35c-0.2-0.9-0.1-1.9,0.3-2.5
						l0,0c0.5-0.8,1.2-0.4,1.5,0.8c1,4.5,2.9,16.5,0.2,37.7C793.5,705.3,793,706,792.4,705.7z"/>
				</g>
			</g>
		</g>
	</g>
	<circle class="st8" cx="503" cy="468.9" r="30"/>
	<g>
		<path class="st9" d="M541.5,579h-76.1c-1.1,0-2-0.9-2-2v-42.1c0-1.1,0.9-2,2-2h76.1c1.1,0,2,0.9,2,2V577
			C543.5,578.1,542.6,579,541.5,579z"/>
		<rect x="465.5" y="536" class="st10" width="76" height="40"/>
	</g>
	<path class="st9" d="M542.9,587.2h5.4c0,0-0.8-2.6-2.7-2.6C543.6,584.6,542.9,587.2,542.9,587.2z"/>
	<path class="st8" d="M532.6,381.1c0-5.4,0.5-10.7,1.6-15.8c-9.9-2.8-20.4-4.3-31.1-4.3c-31.6,0-60.2,12.8-81,33.5
		c-8.9,8.9-7.4,23.8,3.2,30.7l0.3,0.2c7.9,5.1,18.2,3.9,24.9-2.7c13.5-13.3,32.1-21.6,52.6-21.6c12.5,0,24.4,3.1,34.8,8.6
		C534.4,400.7,532.6,391.1,532.6,381.1z"/>
	<linearGradient id="SVGID_5_" gradientUnits="userSpaceOnUse" x1="556.8007" y1="381.5726" x2="671.1738" y2="381.5726">
		<stop  offset="0" style="stop-color:#EFBB81"/>
		<stop  offset="0.5011" style="stop-color:#F79E57"/>
		<stop  offset="1" style="stop-color:#FF7F2A"/>
	</linearGradient>
	<circle class="st11" cx="614" cy="381.6" r="57.2"/>
	<path class="st8" d="M602.9,300.9c-29.8-15.9-63.8-24.9-99.9-24.9c-66.7,0-126.4,30.8-165.5,79c-7.4,9.2-5.2,22.8,4.7,29.2l0,0
		c8.5,5.5,19.9,3.9,26.3-4c31.7-39.2,80.2-64.2,134.4-64.2c18.5,0,36.2,2.9,52.9,8.3C568.3,311.8,584.6,303.3,602.9,300.9z"/>
	<path class="st12" d="M623.9,384l12-12c2.7-2.7,2.7-7.2,0-9.9c-2.7-2.7-7.2-2.7-9.9,0l-12,12l-12-12c-2.7-2.7-7.2-2.7-9.9,0
		c-2.7,2.7-2.7,7.2,0,9.9l12,12l-12,12c-2.7,2.7-2.7,7.2,0,9.9v0c2.7,2.7,7.2,2.7,9.9,0l12-12l12,12c2.7,2.7,7.2,2.7,9.9,0v0
		c2.7-2.7,2.7-7.2,0-9.9L623.9,384z"/>
	<path class="st10" d="M623.9,381.6l12-12c2.7-2.7,2.7-7.2,0-9.9c-2.7-2.7-7.2-2.7-9.9,0l-12,12l-12-12c-2.7-2.7-7.2-2.7-9.9,0
		c-2.7,2.7-2.7,7.2,0,9.9l12,12l-12,12c-2.7,2.7-2.7,7.2,0,9.9v0c2.7,2.7,7.2,2.7,9.9,0l12-12l12,12c2.7,2.7,7.2,2.7,9.9,0v0
		c2.7-2.7,2.7-7.2,0-9.9L623.9,381.6z"/>
	<g>
		<polygon class="st13" points="500.7,562.4 509.7,562.4 509.7,577.8 500,577.8 		"/>
		<path class="st13" d="M493.7,553c0,0-2.4-0.3-2.6,1.3s0.5,5,1.1,5.5c1,1.1,3.2-1,3.2-1L493.7,553z"/>
		<path class="st13" d="M512.6,558.9c0,0,2.6,1.6,3.7,0.8c1.1-0.8,1.8-3.4,1.8-4.5s0.3-2.1-1.1-2.1c-1.3,0-2.1-0.3-2.4,0
			S512.6,558.9,512.6,558.9z"/>
		<path class="st14" d="M482.8,620.4c0,0-12.2-6.1-16.9-2.6c-4.8,3.4-5.8,4.5-6.3,6.6c-0.5,2.1,5.3,17.2,7.4,19.8
			c2.1,2.6,7.4,8.5,8.5,12.2c1.1,3.7,4.8,15.6,10.6,16.4s29.8,4.2,35.1,1.3c5.3-2.9,8.2-7.1,9-8.7s1.3-5.5,3.7-9
			c2.4-3.4,7.1-9.8,8.5-12.9s3.7-11.6,3.7-13.7c0-2.1-4-7.9-5.5-9c-1.6-1.1-9,2.6-10,4.2c-1.1,1.6-47.8,1.6-47.8,1.6L482.8,620.4z"
			/>
		<path class="st15" d="M518.5,529.4c-4.4-7.2-13.1,0.4-13.7,1c-0.6,0.6-3.6-2.4-10.4,1.3c-4.6,2.5-4.5,4.1-5.1,12.3
			c-0.6,8.2,3.1,9.6,3.1,9.6s0.5,0,1.3,0.1c0,1.7,0,3.6,0.1,4.9c0,0,0.4,4.7,3.8,7.3c2.5,1.8,4,2.3,6.2,2.5c3,0.2,6.6-0.7,9.1-4.6
			c0.7-1.1,0.9-3.7,0.9-3.7l1.4-7.2C518.5,551.7,522.9,536.6,518.5,529.4z"/>
		<path class="st16" d="M547.3,616.5c-1.3-4.5-4.8-14.7-4.8-14.7l0,0c-1.2-4.7-4.4-11-4.8-11.5c-0.5-0.8-2.7-8-5.9-9.3
			c-6.1-2.5-11.8-4.7-13.4-6.8c-1.6-2.1-5.2-4-5.2-4s-5.4,1-9.9,0.7c-4.3-0.3-5.8-1.3-6.8-0.9c-0.3,0.1-1.5,2.6-3.6,3.7
			c-2.1,1.1-4.2-0.5-18,8.7c0,0-3.4,1.3-6.1,9.2c-0.7,2.2-1.1,3.8-1.4,4.9l0,0c0,0-4.5,14.7-5.8,19.1c-0.7,2.3,0.1,3.7,1,4.5
			c0.8-0.7,1.9-1.5,3.2-2.4c3.4-2.4,10.4-0.1,14.3,1.5c0,3.9,1.3,8.7-2.1,15.7c-3.4,7.1-1.1,24,2.1,28.3c3.2,4.2,7.7,7.9,8.7,7.9
			c0,0,21.1,2.6,27.7,1.1c6.6-1.6,11.6-12.7,12.4-14.3c0.8-1.6,5.5-10.3,3.7-15.1c-1.8-4.8-5-6.9-5-6.9s0.5-4.9,1-10.7
			c0.9-0.1,1.5-0.3,1.6-0.4c1.1-1.6,8.5-5.3,10-4.2c0.5,0.3,1.1,1,1.9,2l2.3-0.6C544.5,622,548.6,621,547.3,616.5z M478.2,607.1
			c0.3,1.2,1.2,4.6,1.6,8l-4-2.1L478.2,607.1z M529.7,615.6c0.4-4.3,0.7-7.8,0.7-8.2c0-0.2,0-0.3,0.1-0.3l2.7,6.7L529.7,615.6z"/>
		<path class="st17" d="M504.4,574.6c0,0,5.8,0.1,8.2-0.6c2.4-0.7,3.9-1.8,3.9-1.8l-3.2-2c0,0-4.6,0.8-8.2,0.7
			c-3.6,0-8.5-1.4-8.5-1.2c0,0.2-2.7,3.1-2.7,3.1S500.9,574.6,504.4,574.6z"/>
		<polygon class="st18" points="475.4,619.9 480.4,626 480.4,624.4 480.3,621.9 		"/>
		<polygon class="st18" points="528.4,628.5 531.5,626.5 528.3,630.5 		"/>
		<polygon class="st17" points="476.1,612.2 471.7,614.3 477.4,613.7 475.8,612.9 		"/>
		<polygon class="st17" points="532.5,612.2 536.5,614.4 532,614.4 533.1,613.8 		"/>
		<polygon class="st17" points="477.9,607.7 478.2,607.1 478.4,607.7 477.9,598.9 		"/>
		<polygon class="st17" points="530.3,608.4 529.7,595.7 531,608.6 530.4,607.1 		"/>
	</g>
</g>
</svg>
