<?xml version="1.0" standalone="no"?><!DOCTYPE svg PUBLIC "-//W3C//DTD SVG 1.1//EN" "http://www.w3.org/Graphics/SVG/1.1/DTD/svg11.dtd"><svg t="1631782300985" class="icon" viewBox="0 0 1024 1024" version="1.1" xmlns="http://www.w3.org/2000/svg" p-id="82938" xmlns:xlink="http://www.w3.org/1999/xlink" width="200" height="200"><defs><style type="text/css"></style></defs><path d="M511.828218 512.171782m-511.828218 0a511.828218 511.828218 0 1 0 1023.656435 0 511.828218 511.828218 0 1 0-1023.656435 0Z" fill="#3AD0F9" p-id="82939"></path><path d="M801.331053 613.737694c11.995974 2.399195 19.193558 13.595437 17.594095 24.79168l-49.583358 271.109009c-2.399195 11.995974-13.595437 19.193558-24.79168 17.594095l-607.796008-111.962423c-11.995974-2.399195-19.193558-13.595437-17.594095-24.791679l49.583359-271.109009c2.399195-11.995974 13.595437-19.193558 24.791679-17.594095l607.796008 111.962422z" opacity=".2" p-id="82940"></path><path d="M825.323001 289.8464c0-3.198926 3.198926-6.397853 7.997316-7.197584l15.1949-2.399195c3.998658-0.799732 8.797047-4.79839 8.797048-8.797047l2.399194-15.1949c0.799732-3.998658 3.998658-7.997316 7.197585-7.997316s6.397853 3.198926 7.197584 7.997316l2.399195 15.1949c0.799732 3.998658 4.79839 8.797047 8.797047 8.797047l15.1949 2.399195c3.998658 0.799732 7.997316 3.998658 7.997316 7.197584s-3.198926 6.397853-7.997316 7.197585l-15.1949 2.399194c-3.998658 0.799732-8.797047 4.79839-8.797047 8.797048l-2.399195 15.1949c-0.799732 3.998658-3.998658 7.997316-7.197584 7.997316s-6.397853-3.198926-6.397853-7.997316l-2.399195-16.794363c-0.799732-3.998658-4.79839-7.997316-8.797047-8.797048l-14.395169-0.799731c-5.598121-1.599463-9.596779-3.998658-9.596779-7.197585z" fill="#FFFFFF" p-id="82941"></path><path d="M834.120048 608.939305c11.196242 3.198926 17.594095 15.1949 14.395169 27.190874l-77.573964 263.911425c-3.198926 11.196242-15.1949 17.594095-27.190874 14.395168L151.149271 740.095286c-11.196242-3.198926-17.594095-15.1949-14.395169-27.190875l77.573964-263.911424c3.198926-11.196242 15.1949-17.594095 27.190874-14.395169l592.601108 174.341487z" fill="#F9D4CA" p-id="82942"></path><path d="M750.148231 924.033551c-3.198926 0-5.598121-0.799732-8.797047-1.599463l-591.801377-174.341487c-7.197584-2.399195-13.595437-7.197584-17.594095-14.395168-3.998658-7.197584-4.79839-15.1949-2.399194-22.392485l77.573964-263.911424c3.998658-12.795705 15.1949-21.592753 28.790337-21.592753 3.198926 0 5.598121 0.799732 7.997316 1.599463l592.601108 175.141218c15.994632 4.79839 24.791679 20.793021 19.99329 36.787653l-77.573964 263.911425c-3.998658 11.995974-15.994632 20.793021-28.790338 20.793021zM235.920819 441.795402c-5.598121 0-11.196242 3.998658-12.795705 9.596779l-77.573965 263.911425c-0.799732 3.198926-0.799732 7.197584 0.799732 10.396511s4.79839 5.598121 7.997316 6.397853l592.601108 175.141218c7.197584 2.399195 15.1949-2.399195 16.794364-8.797048l77.573964-263.911424c2.399195-7.197584-1.599463-14.395169-9.596779-16.794364l-592.601109-175.94095h-3.198926z" fill="#A03513" p-id="82943"></path><path d="M515.826876 847.259319l227.123771 67.177453c11.196242 3.198926 30.3898-2.399195 33.588727-13.595437l77.573964-263.911425c3.198926-11.196242-10.396511-23.991948-21.592753-27.990605l-227.123771-67.177454-89.569938 305.497468z" fill="#FFFFFF" p-id="82944"></path><path d="M750.148231 920.034893c-3.198926 0-6.397853-0.799732-9.596779-1.599463l-235.121087-68.776917L599.798693 531.365341l235.121087 68.776916c7.197584 2.399195 15.1949 7.197584 19.99329 12.795706 7.197584 7.997316 9.596779 15.994632 7.197584 23.991947l-77.573964 261.51223c-3.998658 14.395169-20.793021 21.592753-34.388459 21.592753z m-224.724576-80.77289l219.926187 63.978527c1.599463 0.799732 3.198926 0.799732 4.798389 0.799731 8.797047 0 17.594095-3.998658 19.193559-8.797047l77.573964-261.51223c0.799732-3.198926-2.399195-7.997316-3.998658-9.596779-3.198926-3.998658-7.997316-7.197584-12.795705-7.997316l-219.926188-63.978527-84.771548 287.103641z" fill="#7C4119" p-id="82945"></path><path d="M638.185809 599.342526c7.997316 2.399195 14.395169 12.795705 11.995974 22.392484l-54.381748 183.938266c-2.399195 9.596779-14.395169 14.395169-22.392485 11.995974-7.997316-2.399195-14.395169-12.795705-11.995974-22.392485l54.381748-183.938265c3.198926-9.596779 14.395169-14.395169 22.392485-11.995974zM676.572925 704.107364c5.598121 1.599463 8.797047 7.197584 7.197585 12.795705l-32.788996 110.36296c-1.599463 5.598121-7.197584 8.797047-12.795705 7.197584l-2.399195-0.799731c-5.598121-1.599463-8.797047-7.197584-7.197584-12.795706l32.788995-110.362959c1.599463-5.598121 7.197584-8.797047 12.795705-7.197585l2.399195 0.799732zM721.357894 717.702801c5.598121 1.599463 8.797047 7.197584 7.197585 12.795705L695.766483 840.861466c-1.599463 5.598121-7.197584 8.797047-12.795705 7.197584l-2.399195-0.799731c-5.598121-1.599463-8.797047-7.197584-7.197584-12.795706l32.788995-110.362959c1.599463-5.598121 7.197584-8.797047 12.795705-7.197585l2.399195 0.799732zM766.942595 730.498506c5.598121 1.599463 8.797047 7.197584 7.197584 12.795706l-32.788995 110.362959c-1.599463 5.598121-7.197584 8.797047-12.795705 7.197585l-2.399195-0.799732c-5.598121-1.599463-8.797047-7.197584-7.197585-12.795705L751.747695 736.896359c1.599463-5.598121 7.197584-8.797047 12.795705-7.197584l2.399195 0.799731zM791.734274 645.726958c5.598121 1.599463 8.797047 7.197584 7.197584 12.795705l-3.998657 13.595437c-1.599463 5.598121-7.197584 8.797047-12.795706 7.197585l-2.399195-0.799732c-5.598121-1.599463-8.797047-7.197584-7.197584-12.795705l3.998658-13.595437c1.599463-5.598121 7.197584-8.797047 12.795705-7.197585l2.399195 0.799732z" fill="#D3D1D1" p-id="82946"></path><path d="M254.314646 333.831638L98.366986 560.155678c-5.598121 10.396511-2.399195 23.192216 7.997315 29.590069l330.289147 187.936923 207.130482 117.560544 1.599463 0.799732c10.396511 5.598121 27.990606 3.198926 33.588727-7.197585l135.95437-239.119745c5.598121-10.396511-2.399195-24.791679-12.795705-30.389801l-1.599463-0.799731-206.330751-118.360276-310.295857-174.341486c-10.396511-6.397853-23.192216-2.399195-29.590068 7.997316z" opacity=".2" p-id="82947"></path><path d="M831.720854 615.337157c9.596779 6.397853 12.795705 19.99329 5.598121 29.590069l-153.548465 228.723235c-6.397853 9.596779-19.99329 12.795705-29.590069 5.598121L141.552491 536.16373c-9.596779-6.397853-12.795705-19.99329-5.598121-29.590069l153.548466-228.723235c6.397853-9.596779 19.99329-12.795705 29.590068-5.598121L831.720854 615.337157z" fill="#FBD000" p-id="82948"></path><path d="M666.976146 892.044288c-5.598121 0-11.196242-1.599463-16.794363-4.79839l-513.427681-343.884584c-13.595437-8.797047-17.594095-27.190874-7.997316-40.786311l153.548465-228.723234c5.598121-7.997316 14.395169-12.795705 24.79168-12.795706 5.598121 0 11.196242 1.599463 16.794363 4.79839l513.427681 343.884583c6.397853 3.998658 11.196242 11.196242 12.795705 19.193558 1.599463 7.997316 0 15.994632-4.798389 22.392485L691.767825 880.048314c-5.598121 6.397853-15.1949 11.995974-24.791679 11.995974z m-359.879215-616.593056c-4.79839 0-8.797047 2.399195-11.196243 6.397852L142.352223 510.572319c-3.998658 6.397853-2.399195 14.395169 3.998658 19.193558l513.427681 343.884584c6.397853 3.998658 15.1949 2.399195 19.193558-3.998658L831.720854 640.928568c2.399195-3.198926 2.399195-6.397853 2.399194-10.39651-0.799732-3.198926-2.399195-6.397853-5.598121-8.797048l-513.427681-343.884584c-3.198926-1.599463-5.598121-2.399195-7.997315-2.399194z" fill="#A03513" p-id="82949"></path><path d="M456.646738 747.29287l196.733971 131.955712c9.596779 6.397853 29.590069 7.197584 36.787653-3.198926l153.548466-228.723235c6.397853-9.596779-2.399195-26.391142-12.795706-32.788995L634.187151 482.581714 456.646738 747.29287z" fill="#FFFFFF" p-id="82950"></path><path d="M672.574267 896.042946c-7.997316 0-16.794363-2.399195-22.392484-6.397853L445.450496 752.091259l187.137192-280.705788 204.731287 137.553834c12.795705 8.797047 24.791679 29.590069 14.395168 43.985237l-154.348196 231.12243c-3.998658 7.997316-13.595437 11.995974-24.79168 11.995974zM467.84298 748.092601l191.13585 128.756786c3.198926 2.399195 7.997316 3.198926 13.595437 3.198927s10.396511-1.599463 11.995974-3.998658l154.348197-231.12243c3.198926-4.79839-3.198926-16.794363-10.396511-21.592753L637.386077 493.777956 467.84298 748.092601z" fill="#7C4119" p-id="82951"></path><path d="M647.782588 547.359972c6.397853 4.79839 10.396511 16.794363 4.79839 24.79168L546.216676 731.298238c-5.598121 7.997316-17.594095 9.596779-24.791679 4.79839-6.397853-4.79839-10.396511-16.794363-4.79839-24.79168L622.990909 552.158362c5.598121-7.997316 18.393827-9.596779 24.791679-4.79839zM652.580978 658.522663c4.79839 3.198926 6.397853 9.596779 3.198926 14.395169L591.801377 768.085891c-3.198926 4.79839-9.596779 6.397853-14.395169 3.198927l-2.399195-1.599464c-4.79839-3.198926-6.397853-9.596779-3.198926-14.395168l63.978527-95.168059c3.198926-4.79839 9.596779-6.397853 14.395169-3.198927l2.399195 1.599463zM692.567557 684.913806c4.79839 3.198926 6.397853 9.596779 3.198926 14.395168l-63.978527 95.16806c-3.198926 4.79839-9.596779 6.397853-14.395168 3.198926l-2.399195-1.599463c-4.79839-3.198926-6.397853-9.596779-3.198927-14.395169l63.978528-95.168059c3.198926-4.79839 9.596779-6.397853 14.395168-3.198926l2.399195 1.599463zM731.754405 711.304948c4.79839 3.198926 6.397853 9.596779 3.198926 14.395169l-63.978527 95.168059c-3.198926 4.79839-9.596779 6.397853-14.395169 3.198926l-2.399194-1.599463c-4.79839-3.198926-6.397853-9.596779-3.198927-14.395168l63.978528-95.16806c3.198926-4.79839 9.596779-6.397853 14.395168-3.198926l2.399195 1.599463zM780.538032 637.729642c4.79839 3.198926 6.397853 9.596779 3.198926 14.395169L775.739642 664.120784c-3.198926 4.79839-9.596779 6.397853-14.395168 3.198927l-2.399195-1.599463c-4.79839-3.198926-6.397853-9.596779-3.198926-14.395169l7.997316-11.995974c3.198926-4.79839 9.596779-6.397853 14.395168-3.198926l2.399195 1.599463z" fill="#D3D1D1" p-id="82952"></path><path d="M434.254253 121.902766L192.735313 253.058747c-9.596779 6.397853-12.795705 19.99329-6.397853 29.590069L395.067406 600.142257l131.15598 199.133166 0.799732 1.599463c6.397853 9.596779 23.192216 15.994632 33.588727 8.797048l230.322698-151.949002c9.596779-6.397853 9.596779-23.192216 2.399194-32.788995l-0.799731-1.599464-131.155981-198.333434L463.844322 128.300619c-6.397853-9.596779-19.99329-12.795705-29.590069-6.397853z" opacity=".2" p-id="82953"></path><path d="M821.324343 635.330447c5.598121 10.396511 2.399195 23.192216-7.997316 29.590069L572.607819 799.275423c-10.396511 5.598121-23.192216 2.399195-29.590069-7.997316L241.51894 251.459284c-5.598121-10.396511-2.399195-23.192216 7.997316-29.590069l240.719209-134.354907c10.396511-5.598121 23.991948-2.399195 29.590069 7.997316l301.498809 539.818823z" fill="#F99900" p-id="82954"></path><path d="M562.211308 809.671934c-10.396511 0-20.793021-5.598121-25.591411-15.1949L234.321356 255.457942c-3.198926-7.197584-4.79839-15.1949-2.399195-22.392485 2.399195-7.997316 7.197584-13.595437 14.395169-17.594095l240.719208-134.354907c4.79839-2.399195 9.596779-3.998658 14.395169-3.998658 10.396511 0 20.793021 5.598121 25.591411 15.194901l301.498809 539.019091c3.998658 7.197584 4.79839 15.1949 2.399195 22.392485-2.399195 7.997316-7.197584 13.595437-14.395169 17.594095L575.806745 805.673276c-3.998658 3.198926-8.797047 3.998658-13.595437 3.998658z m-61.579333-716.559505c-2.399195 0-4.79839 0.799732-6.397852 1.599463L253.514914 229.066799c-3.198926 1.599463-5.598121 4.79839-6.397853 7.997316-0.799732 3.198926-0.799732 7.197584 1.599464 10.396511l301.498809 539.019092c3.198926 6.397853 11.995974 8.797047 18.393827 5.598121l240.719208-134.354907c3.198926-1.599463 5.598121-4.79839 6.397853-7.997316 0.799732-3.198926 0.799732-7.197584-1.599463-10.396511L512.627949 99.510282c-2.399195-3.998658-7.197584-6.397853-11.995974-6.397853z" fill="#A03513" p-id="82955"></path><path d="M427.056669 583.347894l115.961081 207.130482c5.598121 10.396511 23.192216 19.99329 33.588726 13.595437l240.719209-134.354907c10.396511-5.598121 9.596779-24.791679 3.998658-35.18819L705.363262 427.400234 427.056669 583.347894z" fill="#FFFFFF" p-id="82956"></path><path d="M568.609161 816.069787c-12.795705 0-27.190874-8.797047-33.588727-19.99329L415.860427 580.948699 707.762457 416.203992l119.959739 215.127797c4.79839 8.797047 6.397853 21.592753 3.998658 31.189532-1.599463 6.397853-5.598121 11.995974-11.196243 14.395169l-240.719208 135.154639c-2.399195 3.198926-6.397853 3.998658-11.196242 3.998658zM437.45318 587.346552l111.962422 201.532361c3.198926 5.598121 12.795705 11.995974 19.193559 11.995973 1.599463 0 2.399195 0 3.998658-0.799731l240.719208-135.954371c1.599463-0.799732 2.399195-2.399195 3.198926-4.798389 1.599463-5.598121 0.799732-13.595437-2.399194-19.193558l-111.962423-201.532361-264.711156 148.750076z" fill="#7C4119" p-id="82957"></path><path d="M687.769167 491.378761c3.998658 7.197584 1.599463 19.193558-7.197584 23.991948L513.427681 608.939305c-8.797047 4.79839-19.99329 0.799732-23.991948-6.397853s-1.599463-19.193558 7.197584-23.991948L663.77722 484.181177c8.797047-4.79839 19.99329 0 23.991947 7.197584zM642.184467 592.944673c3.198926 4.79839 0.799732 11.196242-3.998658 14.395169l-99.966449 55.981211c-4.79839 3.198926-11.196242 0.799732-14.395168-3.998658l-1.599464-2.399195c-3.198926-4.79839-0.799732-11.196242 3.998658-14.395168l99.966449-55.981212c4.79839-3.198926 11.196242-0.799732 14.395169 3.998658l1.599463 2.399195zM665.376683 633.730984c3.198926 4.79839 0.799732 11.196242-3.998658 14.395169l-99.966449 55.981211c-4.79839 3.198926-11.196242 0.799732-14.395168-3.998658l-1.599464-2.399195c-3.198926-4.79839-0.799732-11.196242 3.998658-14.395168l99.966449-55.981212c4.79839-3.198926 11.196242-0.799732 14.395169 3.998658l1.599463 2.399195zM687.769167 675.317027c3.198926 4.79839 0.799732 11.196242-3.998657 14.395168l-99.966449 55.981212c-4.79839 3.198926-11.196242 0.799732-14.395169-3.998658l-1.599463-2.399195c-3.198926-4.79839-0.799732-11.196242 3.998658-14.395169l99.966449-55.981211c4.79839-3.198926 11.196242-0.799732 14.395168 3.998658l1.599463 2.399195zM765.343132 632.131521c3.198926 4.79839 0.799732 11.196242-3.998658 14.395168l-12.795706 7.197585c-4.79839 3.198926-11.196242 0.799732-14.395168-3.998658l-1.599463-2.399195c-3.198926-4.79839-0.799732-11.196242 3.998657-14.395169l12.795706-7.197584c4.79839-3.198926 11.196242-0.799732 14.395169 3.998658l1.599463 2.399195z" fill="#D3D1D1" p-id="82958"></path><path d="M654.180441 23.535781L383.071432 65.921555c-11.196242 3.198926-18.393827 14.395169-15.994632 26.391143l90.36967 368.676263 56.780942 231.122429v1.599463c3.198926 11.196242 16.794363 22.392485 27.990606 19.99329l267.910083-65.57799c11.995974-3.198926 16.794363-18.393827 13.595437-30.389801V616.136889l-56.780943-231.122429L680.571583 39.530413c-3.198926-11.995974-14.395169-19.193558-26.391142-15.994632z" opacity=".2" p-id="82959"></path><path d="M846.915754 636.92991c2.399195 11.995974-5.598121 23.192216-17.594095 24.79168l-271.908741 46.384432c-11.995974 1.599463-23.192216-5.598121-24.791679-17.594095L429.455864 81.116455c-1.599463-11.995974 5.598121-23.192216 17.594095-24.791679l271.90874-46.384432c11.995974-1.599463 23.192216 5.598121 24.79168 17.594095l103.165375 609.395471z" fill="#F74541" p-id="82960"></path><path d="M555.813455 716.103338c-14.395169 0-26.391142-10.396511-28.790337-24.791679L424.657474 81.116455c-2.399195-15.994632 7.997316-31.189532 23.991948-34.388458L718.958699 0.343565c15.994632-2.399195 31.189532 7.997316 33.588727 23.991947l102.365644 610.195204c1.599463 7.997316-0.799732 15.994632-4.79839 22.392484-4.79839 6.397853-11.196242 10.396511-19.193558 11.995974l-270.309277 46.384432c-1.599463 0.799732-3.198926 0.799732-4.79839 0.799732zM722.957357 16.338196h-2.399194L451.048617 62.722629c-3.198926 0.799732-6.397853 2.399195-8.797048 5.598121-2.399195 3.198926-3.198926 6.397853-2.399194 10.396511l102.365643 610.195203c1.599463 7.197584 7.997316 12.795705 15.994632 11.196242l270.309277-46.384432c3.198926-0.799732 6.397853-2.399195 8.797048-5.598121 2.399195-3.198926 3.198926-6.397853 2.399195-10.396511L736.552794 27.534439C735.753063 21.136586 730.154942 16.338196 722.957357 16.338196z" fill="#A03513" p-id="82961"></path><path d="M492.634659 455.390839l39.98658 233.521625c1.599463 11.995974 15.1949 26.391142 27.190874 24.791679l271.908741-46.384432c11.995974-1.599463 17.594095-19.99329 15.1949-31.989264l-39.98658-233.521624-314.294515 53.582016z" fill="#FFFFFF" p-id="82962"></path><path d="M557.412918 720.101996c-15.1949 0-30.3898-16.794363-32.788995-31.189532L483.837612 448.193255l330.289147-55.981211 40.786311 240.719208c1.599463 7.197584 0 15.994632-3.198927 23.991948-3.998658 9.596779-10.396511 15.1949-19.193558 16.794364l-271.90874 45.5847c-0.799732 0.799732-1.599463 0.799732-3.198927 0.799732z m-55.181479-258.313304l38.387116 224.724577c1.599463 7.997316 11.196242 17.594095 16.794363 17.594095h0.799732l271.908741-45.584701c3.198926-0.799732 5.598121-5.598121 7.197584-7.197584 1.599463-4.79839 2.399195-10.396511 1.599463-15.1949l-38.387116-224.724577-298.299883 50.38309z" fill="#7C4119" p-id="82963"></path><path d="M769.34179 456.190571c1.599463 7.997316-4.79839 19.193558-14.395169 20.793021l-188.736655 31.989264c-9.596779 1.599463-19.193558-6.397853-20.793022-14.395169-1.599463-7.997316 4.79839-18.393827 14.395169-20.793021l188.736655-31.989264c10.396511-1.599463 19.99329 6.397853 20.793022 14.395169zM692.567557 536.16373c0.799732 5.598121-3.198926 11.196242-8.797047 11.995974L571.008355 568.152994c-5.598121 0.799732-11.196242-3.198926-11.995974-8.797048l-0.799731-2.399195c-0.799732-5.598121 3.198926-11.196242 8.797047-11.995973L679.771852 524.967488c5.598121-0.799732 11.196242 3.198926 11.995973 8.797047l0.799732 2.399195zM700.564873 583.347894c0.799732 5.598121-3.198926 11.196242-8.797048 11.995974l-112.762154 19.193558c-5.598121 0.799732-11.196242-3.198926-11.995974-8.797048l-0.799731-2.399194c-0.799732-5.598121 3.198926-11.196242 8.797047-11.995974L687.769167 572.151652c5.598121-0.799732 11.196242 3.198926 11.995974 8.797047l0.799732 2.399195zM707.762457 629.732326c0.799732 5.598121-3.198926 11.196242-8.797047 11.995974l-112.762154 19.193558c-5.598121 0.799732-11.196242-3.198926-11.995974-8.797047l-0.799732-2.399195c-0.799732-5.598121 3.198926-11.196242 8.797048-11.995974L695.766483 618.536084c5.598121-0.799732 11.196242 3.198926 11.995974 8.797047v2.399195zM799.73159 610.538768l-0.799732-2.399195c-0.799732-5.598121-7.197584-8.797047-13.595437-7.997316l-15.994631 2.399195c-6.397853 0.799732-11.196242 6.397853-9.596779 11.196242l0.799731 2.399195c0.799732 5.598121 7.197584 8.797047 13.595437 7.997316l15.994632-2.399195c5.598121-0.799732 10.396511-6.397853 9.596779-11.196242z" fill="#D3D1D1" p-id="82964"></path><path d="M927.688644 592.144941c-17.594095 0-31.989264-14.395169-31.989263-31.989263s14.395169-31.989264 31.989263-31.989264 31.989264 14.395169 31.989264 31.989264-14.395169 31.989264-31.989264 31.989263z m0-48.783627c-9.596779 0-16.794363 7.997316-16.794363 16.794364 0 9.596779 7.997316 16.794363 16.794363 16.794363 9.596779 0 16.794363-7.997316 16.794364-16.794363 0-9.596779-7.197584-16.794363-16.794364-16.794364zM70.37638 396.210702c0-3.198926 3.198926-6.397853 7.997316-7.197585l15.1949-2.399194c3.998658-0.799732 8.797047-4.79839 8.797048-8.797048l2.399194-15.1949c0.799732-3.998658 3.998658-7.997316 7.197585-7.997316s6.397853 3.198926 7.197584 7.997316l2.399195 15.1949c0.799732 3.998658 4.79839 8.797047 8.797047 8.797048l15.1949 2.399194c3.998658 0.799732 7.997316 3.998658 7.997316 7.197585s-3.198926 6.397853-7.997316 7.197584l-15.1949 2.399195c-3.998658 0.799732-8.797047 4.79839-8.797047 8.797047l-2.399195 15.194901c-0.799732 3.998658-3.998658 7.997316-7.197584 7.997315s-6.397853-3.198926-7.197585-7.997315l-2.399194-16.794364c-0.799732-3.998658-4.79839-7.997316-8.797048-8.797047l-14.395169-0.799732c-4.79839-1.599463-8.797047-3.998658-8.797047-7.197584z" fill="#FFFFFF" p-id="82965"></path><path d="M751.747695 360.22278c-3.998658 0-7.197584-2.399195-7.997316-6.397852l-47.983896-295.900689c-0.799732-3.998658 2.399195-8.797047 6.397853-8.797047 4.79839-0.799732 8.797047 2.399195 8.797048 6.397852l47.983895 295.900689c0.799732 3.998658-2.399195 8.797047-6.397853 8.797047H751.747695z" fill="#FFFFFF" opacity=".5" p-id="82966"></path></svg>