<?xml version="1.0" standalone="no"?><!DOCTYPE svg PUBLIC "-//W3C//DTD SVG 1.1//EN" "http://www.w3.org/Graphics/SVG/1.1/DTD/svg11.dtd"><svg t="1628044305216" class="icon" viewBox="0 0 1105 1024" version="1.1" xmlns="http://www.w3.org/2000/svg" p-id="17833" xmlns:xlink="http://www.w3.org/1999/xlink" width="215.8203125" height="200"><defs><style type="text/css"></style></defs><path d="M614.4 778.24H450.56v225.28a20.48 20.48 0 0 0 20.48 20.48h163.84a20.48 20.48 0 0 0 20.48-20.48v-225.28h-40.96z" fill="#89714D" p-id="17834"></path><path d="M1105.92 123.00288C1105.92 55.17824 1050.71104 0 982.8352 0H123.0848C55.20384 0 0 55.17824 0 123.00288v532.24448c0 7.81312 0.80896 15.43168 2.21184 22.8352C10.5472 641.69984 43.04896 614.4 81.95072 614.4h942.01856c38.90176 0 71.40352 27.29984 79.73888 63.68256 1.40288-7.40352 2.21184-15.02208 2.21184-22.8352V123.00288zM327.68 307.2H204.8v61.44h122.88v143.36H163.84v-40.96h122.88V409.6H163.84V266.24h163.84v40.96z m143.36 0v204.8h-40.96V307.2h-40.96v-40.96h81.92v40.96z m327.68 286.72c-112.93184 0-204.8-91.86816-204.8-204.8s91.86816-204.8 204.8-204.8 204.8 91.86816 204.8 204.8-91.86816 204.8-204.8 204.8z" fill="#A48659" p-id="17835"></path><path d="M798.72 225.28c-90.33728 0-163.84 73.50272-163.84 163.84s73.50272 163.84 163.84 163.84 163.84-73.50272 163.84-163.84-73.50272-163.84-163.84-163.84z m65.16736 257.9712l-67.29728-67.29216-70.27712 70.28224-28.96384-28.96384 70.29248-70.27712-63.0528-63.04768 28.96384-28.96384 63.03744 63.0528 60.0576-60.0576 28.96384 28.95872-60.0576 60.0576 67.29728 67.28704-28.96384 28.96384z" fill="#A48659" p-id="17836"></path><path d="M1023.96928 614.4H81.95072C43.04896 614.4 10.5472 641.69984 2.21184 678.08256 0.86016 683.97056 0 690.03264 0 696.32c0 45.16864 36.7616 81.92 81.95072 81.92h942.01856c45.18912 0 81.95072-36.75136 81.95072-81.92 0-6.28736-0.86016-12.34944-2.21184-18.23744-8.33536-36.38272-40.83712-63.68256-79.73888-63.68256z" fill="#BC9A67" p-id="17837"></path><path d="M798.72 184.32c-112.93184 0-204.8 91.86816-204.8 204.8s91.86816 204.8 204.8 204.8 204.8-91.86816 204.8-204.8-91.86816-204.8-204.8-204.8z m0 368.64c-90.33728 0-163.84-73.50272-163.84-163.84s73.50272-163.84 163.84-163.84 163.84 73.50272 163.84 163.84-73.50272 163.84-163.84 163.84z" fill="#FFDC82" p-id="17838"></path><path d="M163.84 266.24v143.36h122.88v61.44H163.84v40.96h163.84V368.64H204.8V307.2h122.88v-40.96H204.8zM389.12 266.24v40.96h40.96v204.8h40.96V266.24h-40.96z" fill="#D8F768" p-id="17839"></path><path d="M885.6064 326.94272l-28.95872-28.96384-60.0576 60.0576-63.03744-63.04768-28.96384 28.96384 63.0528 63.04768L697.344 457.27744l28.96384 28.96384 70.27712-70.28224 67.29728 67.29216 28.96384-28.96384-67.3024-67.28704z" fill="#FFDC82" p-id="17840"></path></svg>