<?xml version="1.0" standalone="no"?><!DOCTYPE svg PUBLIC "-//W3C//DTD SVG 1.1//EN" "http://www.w3.org/Graphics/SVG/1.1/DTD/svg11.dtd"><svg t="1627525063906" class="icon" viewBox="0 0 1027 1024" version="1.1" xmlns="http://www.w3.org/2000/svg" p-id="7242" xmlns:xlink="http://www.w3.org/1999/xlink" width="200.5859375" height="200"><defs><style type="text/css">@font-face { font-family: feedback-iconfont; src: url("//at.alicdn.com/t/font_1031158_1uhr8ri0pk5.eot?#iefix") format("embedded-opentype"), url("//at.alicdn.com/t/font_1031158_1uhr8ri0pk5.woff2") format("woff2"), url("//at.alicdn.com/t/font_1031158_1uhr8ri0pk5.woff") format("woff"), url("//at.alicdn.com/t/font_1031158_1uhr8ri0pk5.ttf") format("truetype"), url("//at.alicdn.com/t/font_1031158_1uhr8ri0pk5.svg#iconfont") format("svg"); }
</style></defs><path d="M859.800982 1023.321491a27.818859 27.818859 0 0 1-25.783333-15.605701l-135.701753-153.342981a32.568421 32.568421 0 0 1 0-30.532895 31.211403 31.211403 0 0 1 30.532894-15.605701h61.065789V665.068863a33.246929 33.246929 0 0 1 30.532894-30.532894h76.671491a33.246929 33.246929 0 0 1 30.532894 30.532894v143.16535h61.065789a44.10307 44.10307 0 0 1 30.532895 15.605701 43.424561 43.424561 0 0 1 0 35.960965l-135.701753 148.593419a44.10307 44.10307 0 0 1-30.532895 15.605702zM72.052306 72.052203h731.432448v363.002189h71.921929V72.052203A67.850876 67.850876 0 0 0 803.484754 0.130274H72.052306A67.850876 67.850876 0 0 0 0.130377 72.052203v731.432448a67.850876 67.850876 0 0 0 71.921929 71.921929h439.673679v-71.921929H72.052306z" p-id="7243"></path><path d="M224.716778 214.539043h437.638153v67.850877H224.716778z m0 198.12456h437.638153v67.850876H224.716778z" p-id="7244"></path></svg>