<?xml version="1.0" standalone="no"?><!DOCTYPE svg PUBLIC "-//W3C//DTD SVG 1.1//EN" "http://www.w3.org/Graphics/SVG/1.1/DTD/svg11.dtd"><svg t="1625731561053" class="icon" viewBox="0 0 1024 1024" version="1.1" xmlns="http://www.w3.org/2000/svg" p-id="5030" xmlns:xlink="http://www.w3.org/1999/xlink" width="200" height="200"><defs><style type="text/css"></style></defs><path d="M269.887113 670.715647c-62.382105-37.992241-115.940992-90.69351-154.947146-154.833023 83.6289-137.512367 234.095084-222.506541 395.137097-222.506541 41.310392 0 81.913463 5.630383 120.882042 16.267371l27.755382-27.755382c-47.526177-15.003827-97.579441-22.999806-148.637624-22.999806-176.647033 0-341.46049 95.164478-430.112983 248.355215l-4.997612 8.638943 4.997612 8.638943c40.874087 70.628714 97.96498 128.882418 164.914988 171.203124L269.887113 670.715647zM940.18545 507.243681c-40.873088-70.632111-97.962781-128.887015-164.913988-171.207721l-25.008045 25.008045c62.383304 37.99344 115.942191 90.695708 154.950544 154.838619C821.588459 653.390393 671.122475 738.384367 510.077064 738.384367c-41.311591 0-81.915661-5.630383-120.88544-16.26857l-27.755382 27.755382c47.527376 15.003827 97.58064 23.000805 148.639822 23.000805 176.65163 0 341.46049-95.164478 430.108387-248.350618l4.997612-8.638943L940.18545 507.243681zM802.6495 223.305591c-10.101351-10.101351-26.478248-10.101351-36.579599 0L217.500231 771.875261c-10.101351 10.101351-10.101351 26.478248 0 36.579599s26.478248 10.101351 36.579599 0l548.570869-548.570869C812.750851 249.783839 812.750851 233.405743 802.6495 223.305591zM363.503241 515.880225c0 18.21585 3.476443 35.580476 9.548726 51.671567l188.694465-188.694465c-16.089891-6.072283-33.455917-9.548726-51.671567-9.548726C429.125549 369.308801 363.503241 434.930909 363.503241 515.880225zM510.074865 662.45185c80.949316 0 146.571624-65.622108 146.571624-146.571624 0-18.21585-3.476443-35.580476-9.548726-51.671567l-188.694465 188.694665C474.494189 658.976606 491.859016 662.45185 510.074865 662.45185z" p-id="5031" fill="#cdcdcd"></path></svg>