<?xml version="1.0" standalone="no"?><!DOCTYPE svg PUBLIC "-//W3C//DTD SVG 1.1//EN" "http://www.w3.org/Graphics/SVG/1.1/DTD/svg11.dtd"><svg t="1625731524949" class="icon" viewBox="0 0 1024 1024" version="1.1" xmlns="http://www.w3.org/2000/svg" p-id="4712" xmlns:xlink="http://www.w3.org/1999/xlink" width="200" height="200"><defs><style type="text/css"></style></defs><path d="M512 765.715c-208.161 0-384.024-116.186-384.024-253.715S303.839 258.285 512 258.285 896.024 374.471 896.024 512 720.161 765.715 512 765.715z m0-471.185c-185.269 0-347.779 101.621-347.779 217.47S326.731 729.47 512 729.47 859.779 627.85 859.779 512 697.269 294.53 512 294.53z" fill="#cdcdcd" p-id="4713"></path><path d="M512 682.845c-94.205 0-170.845-76.64-170.845-170.845S417.795 341.155 512 341.155 682.845 417.795 682.845 512 606.205 682.845 512 682.845z m0-305.445c-74.216 0-134.6 60.385-134.6 134.6S437.784 646.6 512 646.6 646.6 586.216 646.6 512 586.216 377.4 512 377.4z" fill="#cdcdcd" p-id="4714"></path></svg>